<svg xmlns="http://www.w3.org/2000/svg" xmlns:xlink="http://www.w3.org/1999/xlink" width="428.897" height="388.374" viewBox="0 0 428.897 388.374">
  <defs>
    <clipPath id="clip-path">
      <path id="Path_12328" data-name="Path 12328" d="M239.85,156.646a19.11,19.11,0,0,0,23.425-.917,23.485,23.485,0,0,0,7.8-14.208,22.779,22.779,0,0,0-5.849-19.275,17.862,17.862,0,0,0-18.4-4.285C231.791,123.343,226.98,146.888,239.85,156.646Z" transform="translate(-232.415 -117.004)" fill="none"/>
    </clipPath>
    <clipPath id="clip-path-2">
      <path id="Path_12330" data-name="Path 12330" d="M249.3,162.895a15.336,15.336,0,0,0,11.4,14.945,18.794,18.794,0,0,0,12.9-1.5,18.253,18.253,0,0,0,9.953-12.7,14.284,14.284,0,0,0-5.668-14.043C267.433,142.281,249.781,149.965,249.3,162.895Z" transform="translate(-249.3 -146.756)" fill="none"/>
    </clipPath>
    <clipPath id="clip-path-3">
      <rect id="Rectangle_3555" data-name="Rectangle 3555" width="112.705" height="80.063" transform="translate(0 0)" fill="none"/>
    </clipPath>
    <clipPath id="clip-path-4">
      <path id="Path_12367" data-name="Path 12367" d="M293.837,212.257l-112.915-39.3s-13.532,47.842-37.9,63.629a31.438,31.438,0,0,1-9.021,4.09,26.267,26.267,0,0,1-6.8.9c-34.311,0-70.38-96.482-70.38-96.482L98.167,119.88l25.56,39.889s13.2-24.342,21.049-31.379,30.507-6.45,30.507-6.45c6.736,25.214,44.865-1.188,44.865-1.188s28.191-2.045,37.242,1.5C268.021,126.33,303.94,185.84,293.837,212.257Z" transform="translate(-56.82 -119.88)" fill="none"/>
    </clipPath>
    <clipPath id="clip-path-5">
      <path id="Path_12377" data-name="Path 12377" d="M39.65,199.613A52.188,52.188,0,0,0,61.857,216.8l.12.09A30.206,30.206,0,0,0,70.5,184.157c-2.857-7.653-8.766-13.817-12.028-21.335-2.8-6.555-3.443-13.8-4.886-20.779-.226-1.083-.481-2.18-.767-3.263l-.376.105a4.511,4.511,0,0,1-2.842-8.54,22.253,22.253,0,0,0-5.608-6.961c-4.405-3.548-11.442-4.706-15.5-.767-3.263,3.157-3.473,8.314-2.646,12.765,1.985,10.63,8.6,20.132,9.517,30.913.556,6.45-.992,12.915-.8,19.381a22.433,22.433,0,0,0,1.022,5.879,3.2,3.2,0,0,1,.526-.21C41.394,189.675,43.965,197.268,39.65,199.613Z" transform="translate(-25.437 -120.147)" fill="none"/>
    </clipPath>
  </defs>
  <g id="et" transform="translate(-76.26 -216.306)" opacity="0.8">
    <g id="Group_9426" data-name="Group 9426" transform="translate(76.26 216.306)">
      <g id="Group_9416" data-name="Group 9416" transform="translate(0 113.569)">
        <path id="Path_12325" data-name="Path 12325" d="M65.092,103.027a149.647,149.647,0,0,0-46.745,51.586C-1.2,190.788-12.536,245.667,23.338,277.437c41.046,36.355,100.812,13.111,149.782,26.492,31.2,8.525,55.42,30.657,85.972,40.821,44.865,14.915,100.286-.992,126.4-36.085,23.455-31.574,22.718-73.929,4.691-108.254s-51.316-61-88.363-80.289C254.792,95.78,200.139,72.731,144.042,75.813a153.766,153.766,0,0,0-78.95,27.214Z" transform="translate(0.007 -75.535)" fill="#f1f1f4"/>
      </g>
      <g id="Group_9417" data-name="Group 9417" transform="translate(23.726)">
        <path id="Path_12326" data-name="Path 12326" d="M297.726,291.941c34.265,14.3,76.394,18.373,102.015-9.367s27.169-68.305,9.247-100.331c-16.93-30.251-46.745-51.12-64.547-80.89-10.134-16.93-14.494-36.806-24.4-53.872C300.538,13.893,258.574-4.8,223.091,1.067c-33.634,5.548-59.42,35.949-86.694,61.209C122.068,75.507,100.929,83.837,83.172,93.52,63.912,104.044,46,115.08,33.014,133.6c-25.079,35.709-20.268,63.93-1.729,90.964s66.4,36.085,103.744,27.71C195.125,238.836,242.005,268.681,297.726,291.941Z" transform="translate(-15.773 0)" fill="#f1f1f4"/>
      </g>
    </g>
    <g id="Group_9427" data-name="Group 9427" transform="translate(111.256 264.116)">
      <path id="Path_12327" data-name="Path 12327" d="M239.85,156.646a19.11,19.11,0,0,0,23.425-.917,23.485,23.485,0,0,0,7.8-14.208,22.779,22.779,0,0,0-5.849-19.275,17.862,17.862,0,0,0-18.4-4.285C231.791,123.343,226.98,146.888,239.85,156.646Z" transform="translate(82.042 11.105)" fill="#b8b42d"/>
      <g id="Group_9418" data-name="Group 9418" transform="translate(314.457 128.109)" clip-path="url(#clip-path)">
        <rect id="Rectangle_3548" data-name="Rectangle 3548" width="1.879" height="30.657" transform="matrix(0.926, -0.377, 0.377, 0.926, 2.444, 0.781)"/>
        <rect id="Rectangle_3549" data-name="Rectangle 3549" width="36.761" height="1.879" transform="translate(17.039 22.08) rotate(-23.19)"/>
      </g>
      <rect id="Rectangle_3550" data-name="Rectangle 3550" width="134.927" height="1.879" transform="translate(288.404 253.794) rotate(-67.49)"/>
      <path id="Path_12329" data-name="Path 12329" d="M249.3,162.895a15.336,15.336,0,0,0,11.4,14.945,18.794,18.794,0,0,0,12.9-1.5,18.253,18.253,0,0,0,9.953-12.7,14.284,14.284,0,0,0-5.668-14.043C267.433,142.281,249.781,149.965,249.3,162.895Z" transform="translate(90.544 26.086)" fill="#b8b42d"/>
      <g id="Group_9419" data-name="Group 9419" transform="translate(339.844 172.842)" clip-path="url(#clip-path-2)">
        <rect id="Rectangle_3551" data-name="Rectangle 3551" width="1.879" height="24.778" transform="translate(12.238 18.467) rotate(-66.4)"/>
        <rect id="Rectangle_3552" data-name="Rectangle 3552" width="1.879" height="23.154" transform="translate(4.992 -2.8) rotate(-0.573)"/>
      </g>
      <rect id="Rectangle_3553" data-name="Rectangle 3553" width="69.253" height="1.879" transform="translate(308.494 206.993) rotate(-21.9)"/>
      <rect id="Rectangle_3554" data-name="Rectangle 3554" width="112.705" height="80.063" transform="translate(186.004 72.668)" fill="#a8dadc"/>
      <g id="Group_9420" data-name="Group 9420" transform="translate(186.004 72.668)" clip-path="url(#clip-path-3)">
        <path id="Path_12331" data-name="Path 12331" d="M202.684,222.283a16.176,16.176,0,0,1-4.135-.541c-6.014-1.5-11.051-6.886-13.2-13.848s-1.338-13.863-.451-19.29a104.135,104.135,0,0,1,53.12-74.831,19.14,19.14,0,0,0-7.007-6.42c-7.367-3.774-17-2.376-28.657,4.195a119,119,0,0,0-59.209,93.52l-1.864-.135a120.779,120.779,0,0,1,60.141-95.023c12.239-6.886,22.553-8.315,30.431-4.225a21.14,21.14,0,0,1,7.879,7.172A104.571,104.571,0,0,1,273.771,102l.256,1.864a102.871,102.871,0,0,0-33.288,10.615c2.706,4.751,4.721,11.592,4.962,21.41a123.531,123.531,0,0,1-19.741,69.854,45.888,45.888,0,0,1-11.712,12.6A20.373,20.373,0,0,1,202.684,222.283ZM239.01,115.366A102.406,102.406,0,0,0,186.762,188.9c-.857,5.217-1.594,12.028.376,18.433s6.525,11.171,11.893,12.585c12.224,3.2,22.553-10.9,25.365-15.291A121.636,121.636,0,0,0,243.821,135.9c-.241-9.547-2.225-16.073-4.811-20.493Z" transform="translate(-149.85 -69.118)" fill="#fff"/>
      </g>
      <rect id="Rectangle_3556" data-name="Rectangle 3556" width="112.705" height="15.547" transform="translate(186.004 73.059)" fill="#2fb2a2"/>
      <path id="Path_12332" data-name="Path 12332" d="M302.376,229.592S286.634,143.68,231,143.68s-71.673,85.912-71.673,85.912" transform="translate(45.241 24.537)" fill="#2fb2a2"/>
      <path id="Path_12333" data-name="Path 12333" d="M92.806,107.83c-3.744-1.083-6.014,5.458-7.142,10.735l-6.345-8.69L58.27,123.948l6.54,22.042,28.327-17.276S99.963,109.86,92.806,107.83Z" transform="translate(-5.646 6.426)" fill="#9b4a3a"/>
      <path id="Path_12334" data-name="Path 12334" d="M227.647,136.07v45.452l-14.674,16.193-32.341,35.709H114.01l2.676-62.171Z" transform="translate(22.421 20.705)" fill="#b8b42d"/>
      <path id="Path_12335" data-name="Path 12335" d="M182.077,137.706l-4.511,17.862-45.256-2.842,5.413-13.848,3.819-32.461L172.83,86Z" transform="translate(31.635 -4.506)" fill="#b2614e"/>
      <path id="Path_12336" data-name="Path 12336" d="M157.494,101.2a38.3,38.3,0,0,1-20.7,21.365l2.376-20.283L148.5,96.16C151.525,97.844,154.411,99.5,157.494,101.2Z" transform="translate(33.892 0.609)"/>
      <path id="Path_12337" data-name="Path 12337" d="M182.93,88.135l-.722,1.909L168.6,126.13s-18.388,18.944-37.348,2.3c-10.525-9.262-13.532-33.8-8.315-53.03.165-.616.346-1.218.526-1.819v-.271a.442.442,0,0,1,.12-.361v-.18c.226-.692.466-1.383.722-2.06s.346-.962.541-1.5.5-1.233.752-1.819c2.782-6.33,6.676-11.547,11.743-14.644a19.742,19.742,0,0,1,3.624-1.774,17.439,17.439,0,0,1,1.774-.571c.5-.135.992-.256,1.5-.346a21.59,21.59,0,0,1,4.1-.391h.406c12.134,0,19.952,5.007,24.974,11.292,6.36,7.924,8.269,18.042,8.856,23.41v1.353c0,.5.075.917.09,1.278s0,.842,0,1.007Z" transform="translate(25.656 -22.805)" fill="#b2614e"/>
      <path id="Path_12338" data-name="Path 12338" d="M135.014,94.859a4.075,4.075,0,0,1-4.06-4.405L132.1,76.02l1.864.15L132.819,90.6a2.225,2.225,0,0,0,.586,1.669,2.18,2.18,0,0,0,1.609.707h0v1.879Z" transform="translate(30.947 -9.532)"/>
      <path id="Path_12339" data-name="Path 12339" d="M139.49,77.665c0,1.1.631,1.985,1.413,1.985s1.428-.887,1.428-1.985-.647-1.985-1.428-1.985S139.49,76.552,139.49,77.665Z" transform="translate(35.251 -9.703)"/>
      <path id="Path_12340" data-name="Path 12340" d="M125.17,77.665c0,1.083.631,1.97,1.413,1.97S128,78.747,128,77.65s-.632-1.97-1.413-1.97S125.17,76.567,125.17,77.665Z" transform="translate(28.041 -9.703)"/>
      <path id="Path_12341" data-name="Path 12341" d="M145.528,71.019a6.346,6.346,0,0,1,1.714.662c.481.316.827.767.737,1.188-.135.677-1.278.962-2.285,1.052a18.358,18.358,0,0,1-6.616-.707,3.01,3.01,0,0,1-1.789-1.1c-.556-1.233,1.744-1.624,2.661-1.669a18.449,18.449,0,0,1,5.578.571Z" transform="translate(34.099 -12.349)"/>
      <path id="Path_12342" data-name="Path 12342" d="M130.1,70.455a4.661,4.661,0,0,1,1.5.346c.451.21.8.556.767.947,0,.647-.992,1.083-1.849,1.308a15.472,15.472,0,0,1-5.819.346c-.662-.09-1.413-.286-1.669-.722-.616-1.037,1.323-1.729,2.135-1.925A15.636,15.636,0,0,1,130.1,70.455Z" transform="translate(26.903 -12.371)"/>
      <path id="Path_12343" data-name="Path 12343" d="M293.837,212.247l-112.915-39.3s-13.532,47.827-37.9,63.629a31.861,31.861,0,0,1-9.021,4.09,26.265,26.265,0,0,1-6.8.9c-24.327,0-49.541-48.489-62.156-76.68-5.172-11.592-8.224-19.771-8.224-19.771L98.167,119.9l9.021,14.133,16.539,25.756s13.2-24.342,21.049-31.379,30.507-6.465,30.507-6.465c6.736,25.229,44.865-1.173,44.865-1.173s28.191-2.045,37.242,1.5C268.021,126.32,303.955,185.83,293.837,212.247Z" transform="translate(-6.376 12.563)" fill="#b8b42d"/>
      <path id="Path_12344" data-name="Path 12344" d="M199.226,193.344l-32.341,35.709H154.767l-13.457-48.82,45.166-17.005,6.164-18.478Z" transform="translate(36.169 25.076)" fill="#a39b13"/>
      <path id="Path_12345" data-name="Path 12345" d="M140.221,184.521c-6.616,1.91-10.946.406-11.427-3.157-.406-2.917,9.8-5.232,18.749-5.879a112.763,112.763,0,0,0,12.8-1.894" transform="translate(29.859 39.598)" fill="#b2614e"/>
      <path id="Path_12346" data-name="Path 12346" d="M162.648,173.59,174.5,206.262s-37.273,7.427-40.6,3.954a2.511,2.511,0,0,1-.391-3.684s-3.684,1.2-5.307-.436a3.007,3.007,0,0,1-.391-3.669s-3.338.571-3.608-2.526c-.3-3.4,8.886-9.758,18.358-15.381" transform="translate(27.551 39.598)" fill="#b2614e"/>
      <path id="Path_12347" data-name="Path 12347" d="M127.423,196.6l-1.263-1.4a55.27,55.27,0,0,1,13.772-8.675l.767,1.714a53.587,53.587,0,0,0-13.276,8.36Z" transform="translate(28.54 46.114)"/>
      <path id="Path_12348" data-name="Path 12348" d="M131.052,198.558l-1.052-1.5a91.048,91.048,0,0,1,11.622-6.134l.722,1.729A89.071,89.071,0,0,0,131.052,198.558Z" transform="translate(30.473 48.324)"/>
      <path id="Path_12349" data-name="Path 12349" d="M143.614,32.1a13.021,13.021,0,0,1,12.8,21.049,13.381,13.381,0,0,1-14.689,3.8C129.962,52.4,131.3,34.823,143.614,32.1Z" transform="translate(32.285 -31.799)"/>
      <path id="Path_12350" data-name="Path 12350" d="M248.428,199.779c-6.976,18.824-41.482,25.56-65.313,27.981-13.291,1.338-23.26,1.338-23.26,1.338L147,182.759l17.306-6.285,25.56-9.262V144.66Z" transform="translate(39.034 25.031)" fill="#b8b42d"/>
      <path id="Path_12351" data-name="Path 12351" d="M119.592,159.47,117.171,216.6a31.439,31.439,0,0,1-9.021,4.09Z" transform="translate(19.471 32.488)" fill="#a39b13"/>
      <ellipse id="Ellipse_634" data-name="Ellipse 634" cx="31.528" cy="31.528" rx="31.528" ry="31.528" transform="matrix(0.834, -0.552, 0.552, 0.834, 54.489, 74.386)" fill="#2fb2a2"/>
      <path id="Path_12352" data-name="Path 12352" d="M58.23,146.264h0a7.307,7.307,0,0,1-1.037-10.525L95.247,91.43l7.382,5.789L68.665,144.76a7.292,7.292,0,0,1-10.435,1.5Z" transform="translate(-7.079 -1.772)" fill="#2fb2a2"/>
      <path id="Path_12353" data-name="Path 12353" d="M115.737,109.96a23.064,23.064,0,0,1-4.6,4.511,23.77,23.77,0,1,1,.09-38.16l.451.346a23.7,23.7,0,0,1,4.044,33.348Z" transform="translate(1.916 -11.762)" fill="#a8dadc"/>
      <g id="Group_9421" data-name="Group 9421" transform="translate(78.545 61.482)" opacity="0.5">
        <path id="Path_12354" data-name="Path 12354" d="M110.121,75.712l-11.472,42.64A23.771,23.771,0,0,1,75.51,106.91l29.214-34.22A24.057,24.057,0,0,1,110.121,75.712Z" transform="translate(-75.51 -72.69)" fill="#fff"/>
      </g>
      <g id="Group_9422" data-name="Group 9422" transform="translate(113.051 67.285)" opacity="0.5">
        <path id="Path_12355" data-name="Path 12355" d="M103.061,107.463a23.064,23.064,0,0,1-4.6,4.511l3.187-35.423a23.756,23.756,0,0,1,1.413,30.913Z" transform="translate(-98.46 -76.55)" fill="#fff"/>
      </g>
      <g id="Group_9423" data-name="Group 9423" transform="translate(75.704 59.782)" opacity="0.5">
        <path id="Path_12356" data-name="Path 12356" d="M98.954,71.65,73.62,90.444A23.786,23.786,0,0,1,98.954,71.65Z" transform="translate(-73.62 -71.56)" fill="#fff"/>
      </g>
      <path id="Path_12357" data-name="Path 12357" d="M82.425,127.836a2.466,2.466,0,0,1-.752,3.563c-2.1,1.789-20.959-1.8-23.245-5.067-3.218-4.511,9.773-21.32,17.276-20.869,6.014.346,17.08,13.532,16.449,16.794-.571,3.007-3.759,2.12-3.759,2.12a3.007,3.007,0,0,1-.752,3.548C85.9,129.384,82.425,127.836,82.425,127.836Z" transform="translate(-5.819 5.289)" fill="#b2614e"/>
      <path id="Path_12358" data-name="Path 12358" d="M81.789,122.171a53.194,53.194,0,0,0-12.149-9.442l.932-1.639a54.533,54.533,0,0,1,12.615,9.818Z" transform="translate(0.079 8.127)"/>
      <path id="Path_12359" data-name="Path 12359" d="M77.355,123.71a92.949,92.949,0,0,0-10.525-6.961l.887-1.639a87.072,87.072,0,0,1,10.75,7.127Z" transform="translate(-1.335 10.151)"/>
      <path id="Path_12360" data-name="Path 12360" d="M127.943,93.285a9.593,9.593,0,1,1,9.593-9.593,9.593,9.593,0,0,1-9.593,9.593Zm0-17.306a7.713,7.713,0,1,0,7.713,7.713A7.713,7.713,0,0,0,127.943,75.979Z" transform="translate(24.606 -10.498)" fill="#ff6542"/>
      <path id="Path_12361" data-name="Path 12361" d="M142.383,93.285a9.593,9.593,0,1,1,9.593-9.593A9.593,9.593,0,0,1,142.383,93.285Zm0-17.306a7.713,7.713,0,1,0,7.713,7.713A7.713,7.713,0,0,0,142.383,75.979Z" transform="translate(31.878 -10.498)" fill="#ff6542"/>
      <rect id="Rectangle_3557" data-name="Rectangle 3557" width="4.405" height="1.879" transform="translate(161.21 72.112)" fill="#ff6542"/>
      <rect id="Rectangle_3558" data-name="Rectangle 3558" width="26.402" height="1.879" transform="translate(182.436 72.222) rotate(-29.98)" fill="#ff6542"/>
      <path id="Path_12362" data-name="Path 12362" d="M181.609,84.387a37.333,37.333,0,0,1-37.453-28A42.61,42.61,0,0,1,122.58,72.93v-.18c.226-.692.466-1.383.722-2.06s.346-.962.541-1.5.5-1.233.752-1.819c2.782-6.33,6.676-11.547,11.743-14.644a19.739,19.739,0,0,1,3.624-1.774,17.441,17.441,0,0,1,1.774-.571c.5-.135.992-.256,1.5-.346a21.59,21.59,0,0,1,4.1-.391h.406c12.133,0,19.952,5.007,24.974,11.292C179.113,68.9,181.022,79,181.609,84.387Z" transform="translate(26.736 -22.815)"/>
      <path id="Path_12363" data-name="Path 12363" d="M157.3,75.461a7.172,7.172,0,0,1,6.54-3.142,10.164,10.164,0,0,1,6.631,3.413,12.78,12.78,0,0,1-14.614,20.3" transform="translate(43.494 -11.408)" fill="#b2614e"/>
      <path id="Path_12364" data-name="Path 12364" d="M163.886,86.914l-1.879-.135a11.111,11.111,0,0,0-3.007-8.4l.707-1.594,5.668.135v1.879l-3.639-.09A13.186,13.186,0,0,1,163.886,86.914Z" transform="translate(45.074 -9.149)"/>
      <path id="Path_12365" data-name="Path 12365" d="M134.17,93.577l-.12-1.879a5.308,5.308,0,0,0,3.007-.917,3.128,3.128,0,0,0,1.188-2.3l1.879.09a5.052,5.052,0,0,1-1.924,3.7A7.127,7.127,0,0,1,134.17,93.577Z" transform="translate(32.512 -3.258)"/>
      <g id="Group_9424" data-name="Group 9424" transform="translate(50.444 132.433)" clip-path="url(#clip-path-4)">
        <path id="Path_12366" data-name="Path 12366" d="M155.893,147.695a29.439,29.439,0,0,1-17.486-5.4c-7.2-5.338-10.765-14.614-8.69-22.553l1.819.466c-1.894,7.217,1.4,15.667,7.984,20.553,6.014,4.435,14.509,6.014,22.824,4.39a47.181,47.181,0,0,0,21.2-11.141,132.085,132.085,0,0,0,16.449-18.042l1.5,1.173A135.643,135.643,0,0,1,184.806,135.4a49.045,49.045,0,0,1-22.057,11.547A34.04,34.04,0,0,1,155.893,147.695Z" transform="translate(-20.409 -121.849)"/>
      </g>
      <path id="Path_12368" data-name="Path 12368" d="M107.223,134.013l-42.1,30.852c-5.172-11.592-8.224-19.771-8.224-19.771L98.247,119.88Z" transform="translate(-6.336 12.553)" fill="#fff"/>
      <path id="Path_12369" data-name="Path 12369" d="M183.085,217.105c-13.291,1.338-23.26,1.338-23.26,1.338L147,172.1l17.306-6.285Z" transform="translate(39.034 35.686)" fill="#fff"/>
      <path id="Path_12370" data-name="Path 12370" d="M66.209,145.549a3.954,3.954,0,1,1,3.939-3.939,3.954,3.954,0,0,1-3.939,3.939Zm0-6.014a2.075,2.075,0,1,0,2.06,2.075,2.075,2.075,0,0,0-2.06-2.075Z" transform="translate(-3.647 21.496)"/>
      <path id="Path_12371" data-name="Path 12371" d="M161.959,198.049a3.954,3.954,0,1,1,3.939-3.939A3.954,3.954,0,0,1,161.959,198.049Zm0-6.014a2.075,2.075,0,1,0,2.06,2.075,2.075,2.075,0,0,0-2.06-2.075Z" transform="translate(44.566 47.931)"/>
      <path id="Path_12372" data-name="Path 12372" d="M39.508,226.945c-6.631-9.788-12.434-17.832-14.96-29.379s-1.5-24.237,4.811-34.25S47.7,146.6,59.43,148.476c10.3,1.654,18.764,9.472,23.831,18.6s7.262,19.546,9.382,29.725A25.4,25.4,0,0,1,116.82,182.23a27.064,27.064,0,0,1,22.869,16.809,28.853,28.853,0,0,1-4.661,28.251" transform="translate(-23.269 26.793)" fill="#2fb2a2"/>
      <path id="Path_12373" data-name="Path 12373" d="M173.187,223.633a24.658,24.658,0,0,1-4-24.282,23.094,23.094,0,0,1,19.741-14.509,22.222,22.222,0,0,1,19.636,10.224c1.609-7.593,3.458-15.321,7.322-22.267,4.8-8.63,12.4-14.554,20.358-15.832,9.5-1.5,20.087,3.7,25.725,12.69,4.917,7.833,6.42,18.4,4.1,28.988-2,9.141-6.405,15.637-11.5,23.139l-.992,1.5-1.5-1.052.977-1.5c5.007-7.352,9.322-13.7,11.231-22.553,2.21-10.1.8-20.162-3.849-27.575-5.262-8.375-15.035-13.246-23.846-11.833-7.4,1.188-14.509,6.751-19.02,14.885-4.15,7.518-5.939,16.028-7.653,24.3l-1.789.18a20.057,20.057,0,0,0-19.035-11.472,21.486,21.486,0,0,0-18.118,13.321,23.064,23.064,0,0,0,3.7,22.4Z" transform="translate(49.411 31.098)"/>
      <path id="Path_12374" data-name="Path 12374" d="M186.95,72.255a12.028,12.028,0,0,1-1.5-.09h0a10.675,10.675,0,0,1,1.128-21.29h0a10.074,10.074,0,0,1,9.382,5.262,11.712,11.712,0,0,1-.616,11.773A9.8,9.8,0,0,1,186.95,72.255ZM185.687,70.3a8.3,8.3,0,0,0,8.179-3.443,9.8,9.8,0,0,0,.511-9.833,8.284,8.284,0,0,0-7.728-4.27h0a8.8,8.8,0,0,0-.917,17.546Z" transform="translate(53.586 -22.2)"/>
      <path id="Path_12375" data-name="Path 12375" d="M42.864,208.3l-1.5-1.068a61.974,61.974,0,0,1,9.2-10.269c7.518-6.736,15.276-10.179,22.553-9.923,9.773.331,18.629,7.142,26.327,20.253l-1.624.947c-7.352-12.524-15.682-19.02-24.763-19.32h-.662C56.245,188.909,43,208.034,42.864,208.3Z" transform="translate(-14.16 46.366)" fill="#fff"/>
      <path id="Path_12376" data-name="Path 12376" d="M39.65,199.613A52.188,52.188,0,0,0,61.857,216.8l.12.09A30.206,30.206,0,0,0,70.5,184.157c-2.857-7.653-8.766-13.817-12.028-21.335-2.8-6.555-3.443-13.8-4.886-20.779-.226-1.083-.481-2.18-.767-3.263l-.376.105a4.511,4.511,0,0,1-2.842-8.54,22.253,22.253,0,0,0-5.608-6.961c-4.405-3.548-11.442-4.706-15.5-.767-3.263,3.157-3.473,8.314-2.646,12.765,1.985,10.63,8.6,20.132,9.517,30.913.556,6.45-.992,12.915-.8,19.381a22.433,22.433,0,0,0,1.022,5.879,3.2,3.2,0,0,1,.526-.21C41.394,189.675,43.965,197.268,39.65,199.613Z" transform="translate(-22.177 12.688)" fill="#a8dadc"/>
      <rect id="Rectangle_3559" data-name="Rectangle 3559" width="1.879" height="104.225" transform="translate(15.7 154.869) rotate(-17.25)"/>
      <g id="Group_9425" data-name="Group 9425" transform="translate(3.259 132.835)" clip-path="url(#clip-path-5)">
        <rect id="Rectangle_3560" data-name="Rectangle 3560" width="1.879" height="29.98" transform="translate(-0.144 31.691) rotate(-47.22)"/>
        <rect id="Rectangle_3561" data-name="Rectangle 3561" width="33.123" height="1.879" transform="translate(27.757 70.772) rotate(-70.63)"/>
        <rect id="Rectangle_3562" data-name="Rectangle 3562" width="34.281" height="1.879" transform="matrix(0.25, -0.968, 0.968, 0.25, 17.675, 38.799)"/>
        <rect id="Rectangle_3563" data-name="Rectangle 3563" width="1.879" height="30.326" transform="translate(5.673 61.386) rotate(-54.16)"/>
      </g>
    </g>
  </g>
</svg>
