<svg xmlns="http://www.w3.org/2000/svg" width="24" height="19.636" viewBox="0 0 24 19.636">
  <g id="noun_filter_2111622" transform="translate(-1 -3)">
    <path id="Path_16203" data-name="Path 16203" d="M10.818,3A3.282,3.282,0,0,0,7.75,5.182H2.091a1.091,1.091,0,1,0,0,2.182H7.75a3.248,3.248,0,0,0,6.136,0H23.909a1.091,1.091,0,1,0,0-2.182H13.886A3.282,3.282,0,0,0,10.818,3Zm0,2.182A1.091,1.091,0,1,1,9.727,6.273,1.075,1.075,0,0,1,10.818,5.182Zm6.545,4.364A3.282,3.282,0,0,0,14.3,11.727H2.091a1.091,1.091,0,1,0,0,2.182H14.3a3.248,3.248,0,0,0,6.136,0h3.477a1.091,1.091,0,1,0,0-2.182H20.432A3.282,3.282,0,0,0,17.363,9.545Zm0,2.182a1.091,1.091,0,1,1-1.078,1.153,1.092,1.092,0,0,0,0-.126A1.067,1.067,0,0,1,17.363,11.727ZM8.636,16.091a3.283,3.283,0,0,0-3.075,2.2,1.091,1.091,0,0,0-.2-.015H2.091a1.091,1.091,0,1,0,0,2.182H5.364a1.091,1.091,0,0,0,.2-.017,3.249,3.249,0,0,0,6.143.017h12.2a1.091,1.091,0,1,0,0-2.182H11.7A3.282,3.282,0,0,0,8.636,16.091Zm0,2.182a1.091,1.091,0,1,1-1.091,1.091A1.075,1.075,0,0,1,8.636,18.273Z" transform="translate(0 0)" fill="#7b809e"/>
  </g>
</svg>
