<svg id="google" xmlns="http://www.w3.org/2000/svg" width="176.293" height="60" viewBox="0 0 176.293 60">
  <rect id="Rectangle_18341" data-name="Rectangle 18341" width="176.293" height="60" rx="7" transform="translate(0 0)" fill="#2fb2a2"/>
  <g id="Group_10881" data-name="Group 10881" transform="translate(17.629 11.999)">
    <text id="PLAY_STORE_" data-name="PLAY STORE " transform="translate(96 32.629)" fill="#fff" font-size="16" font-family="Roboto-Bold, Roboto" font-weight="700"><tspan x="-96.359" y="0">PLAY STORE </tspan></text>
    <text id="Download_on_the" data-name="Download on the" transform="translate(82 10)" fill="#fff" font-size="11" font-family="Roboto-Regular, Roboto"><tspan x="-82.221" y="0">Download on the</tspan></text>
  </g>
  <g id="google-play" transform="translate(130.456 14.999)">
    <path id="Path_666" data-name="Path 666" d="M21.946,16.633,18.271,13.02l-13.49,13.3Z" transform="translate(0.067 3.674)" fill="#fff"/>
    <path id="Path_667" data-name="Path 667" d="M21.946,10.3,4.781.61l13.49,13.3Z" transform="translate(0.067 0.172)" fill="#fff"/>
    <path id="Path_668" data-name="Path 668" d="M24.056,14.682a2.385,2.385,0,0,0-.073-3.654l-3.6-2.049-4.017,3.877,4.017,3.877Z" transform="translate(3.336 2.534)" fill="#fff"/>
    <path id="Path_669" data-name="Path 669" d="M2.326,30.772,18.012,15.384,2.326,0h0A2.334,2.334,0,0,0,1,2.122V28.65a2.334,2.334,0,0,0,1.326,2.122Z" transform="translate(-1 0)" fill="#fff"/>
  </g>
</svg>
