<svg id="heart" xmlns="http://www.w3.org/2000/svg" width="18.229" height="16.022" viewBox="0 0 18.229 16.022">
  <g id="Group_10623" data-name="Group 10623" transform="translate(0 0)">
    <g id="Group_10622" data-name="Group 10622">
      <path id="Path_16214" data-name="Path 16214" d="M45.172,91.846a4.965,4.965,0,0,1-.041.627c.008-.051.013-.1.021-.151a4.844,4.844,0,0,1-.322,1.19l.057-.136a4.477,4.477,0,0,1-.273.546c-.053.089-.107.177-.166.262-.028.043-.058.085-.09.128l-.038.051c-.064.089.087-.109,0,0a7.118,7.118,0,0,1-.526.567l-.45.45-1.183,1.183-2.025,2.025-1.94,1.94c-.315.315-.627.635-.947.947l-.006.006c-.049.047-.083.034.032-.019-.04.019-.073.047-.113.064l.136-.057a.805.805,0,0,1-.171.049l.151-.021a.7.7,0,0,1-.177,0l.151.021a.663.663,0,0,1-.171-.049l.136.057c-.04-.019-.075-.043-.113-.064.13.073.073.058.032.019l-.006-.006-.034-.034-.153-.153-.591-.591-1.9-1.9c-.7-.693-1.392-1.386-2.087-2.081l-1.3-1.3-.348-.348c-.139-.139-.281-.275-.414-.418-.062-.066-.124-.136-.183-.205l-.087-.105c-.064-.079.073.1.03.04l-.057-.075a4.342,4.342,0,0,1-.288-.45,4.419,4.419,0,0,1-.232-.475l.057.136a4.847,4.847,0,0,1-.326-1.2c.008.051.013.1.021.151a4.874,4.874,0,0,1,0-1.239c-.008.051-.013.1-.021.151a4.767,4.767,0,0,1,.326-1.2l-.057.136a4.755,4.755,0,0,1,.382-.725c.04-.06.079-.119.121-.177.015-.023.032-.043.047-.066.087-.117-.066.083-.006.008.089-.111.181-.218.277-.32a4.723,4.723,0,0,1,.345-.328c.057-.047.115-.092.171-.139-.134.117-.023.019.011-.006s.068-.049.1-.072a4.717,4.717,0,0,1,.834-.456l-.136.057a4.845,4.845,0,0,1,1.19-.322l-.151.021a4.836,4.836,0,0,1,1.256,0l-.151-.021a4.845,4.845,0,0,1,1.19.322l-.136-.057a4.717,4.717,0,0,1,.834.456c.06.041.117.089.177.128-.149-.1-.024-.019.009.009s.064.053.1.081c.09.079.179.16.264.245l.565.565a.572.572,0,0,0,.8,0l.5-.5c.1-.1.2-.194.3-.284.041-.036.083-.072.124-.105l.064-.051c.045-.036-.07.053-.06.047a.367.367,0,0,0,.043-.032q.141-.1.288-.2a4.659,4.659,0,0,1,.68-.354l-.136.057a4.847,4.847,0,0,1,1.2-.326l-.151.021a4.874,4.874,0,0,1,1.239,0l-.151-.021a4.767,4.767,0,0,1,1.2.326l-.136-.057a4.755,4.755,0,0,1,.725.382c.06.04.119.079.177.121.023.015.043.032.066.047.117.087-.083-.066-.008-.006.111.089.218.181.32.277a4.721,4.721,0,0,1,.328.345c.047.057.092.115.139.171-.117-.134-.019-.023.006.011s.049.068.072.1a4.718,4.718,0,0,1,.456.834l-.057-.136a4.844,4.844,0,0,1,.322,1.19c-.008-.051-.013-.1-.021-.151a4.307,4.307,0,0,1,.045.625.565.565,0,0,0,1.13,0,5.276,5.276,0,0,0-.844-2.861,5.208,5.208,0,0,0-2.115-1.857,5.273,5.273,0,0,0-5.063.281,8.845,8.845,0,0,0-1.49,1.3h.8l-.541-.541a5.257,5.257,0,0,0-1.288-.957,5.35,5.35,0,0,0-3.613-.475,5.117,5.117,0,0,0-1.659.689,5.4,5.4,0,0,0-1.371,1.277,5.257,5.257,0,0,0-.232,5.95,8.874,8.874,0,0,0,1.292,1.469l.482.482,1.108,1.108,1.42,1.42,1.439,1.439,1.147,1.147c.183.183.364.365.546.546a1.229,1.229,0,0,0,1.484.2,1.7,1.7,0,0,0,.328-.273l.744-.744,1.258-1.258,1.46-1.46,1.369-1.369.964-.964.433-.433c.239-.239.486-.471.7-.731a5.386,5.386,0,0,0,.953-1.676,5.254,5.254,0,0,0,.286-1.714.565.565,0,1,0-1.13,0Z" transform="translate(-28.073 -86.61)"/>
    </g>
  </g>
</svg>
