<svg xmlns="http://www.w3.org/2000/svg" width="20" height="20" viewBox="0 0 20 20">
  <g id="lang" transform="translate(-105.002 -34.998)">
    <path id="Path_18874" data-name="Path 18874" d="M115,35a10,10,0,1,0,5,1.34A10,10,0,0,0,115,35Zm7.789,6.429h-3.4a12.974,12.974,0,0,0-2.536-4.8,8.6,8.6,0,0,1,5.939,4.8Zm-7.829,11.807a11.584,11.584,0,0,1-2.854-4.664h5.786a11.583,11.583,0,0,1-2.857,4.664A.064.064,0,0,1,114.963,53.234Zm-3.214-6.093a11.784,11.784,0,0,1,0-4.286h6.507a11.784,11.784,0,0,1,0,4.286ZM106.431,45a8.494,8.494,0,0,1,.271-2.143h3.6a13.22,13.22,0,0,0,0,4.286h-3.6A8.493,8.493,0,0,1,106.431,45ZM115,36.748a.054.054,0,0,1,.039,0,11.585,11.585,0,0,1,2.854,4.678h-5.786a11.583,11.583,0,0,1,2.857-4.664.053.053,0,0,1,.036-.014Zm4.7,6.107h3.6a8.594,8.594,0,0,1,0,4.286h-3.6A13.22,13.22,0,0,0,119.706,42.855Zm-6.554-6.225a13.025,13.025,0,0,0-2.536,4.8h-3.4a8.6,8.6,0,0,1,5.939-4.8ZM107.213,48.57h3.4a12.974,12.974,0,0,0,2.536,4.8,8.6,8.6,0,0,1-5.939-4.8Zm9.643,4.8a13.03,13.03,0,0,0,2.532-4.8h3.4a8.6,8.6,0,0,1-5.939,4.8Z" transform="translate(0)" fill="#ffd36a"/>
  </g>
</svg>
