<svg xmlns="http://www.w3.org/2000/svg" width="58.068" height="69.8" viewBox="0 0 58.068 69.8">
  <g id="logo" transform="translate(-417.71 -392.996)">
    <g id="Group_10809" data-name="Group 10809" transform="translate(417.71 392.996)">
      <g id="Group_10807" data-name="Group 10807" transform="translate(0 46.059)">
        <path id="Path_17183" data-name="Path 17183" d="M441.577,598.351a6.486,6.486,0,0,0-4.14-4.254,10.9,10.9,0,0,0-3.725-.572h-9.052v2.436h1.548a5.148,5.148,0,0,0-.888,2.951,5.063,5.063,0,0,0,.23,1.534,5.728,5.728,0,0,0,.629,1.36h-6.033V587H417.71v17.241h24.368V601.8A11.06,11.06,0,0,0,441.577,598.351Zm-8.381,1.662a2.852,2.852,0,0,1-.646.931,3.147,3.147,0,0,1-.945.629,2.9,2.9,0,0,1-2.265,0,3.18,3.18,0,0,1-.945-.629,2.838,2.838,0,0,1-.876-2.063,2.9,2.9,0,0,1,.23-1.147,2.754,2.754,0,0,1,.629-.931,3,3,0,0,1,.945-.615,2.971,2.971,0,0,1,2.293,0,3.11,3.11,0,0,1,.945.615,2.8,2.8,0,0,1,.629.931,2.944,2.944,0,0,1,.23,1.147A2.757,2.757,0,0,1,433.2,600.013Zm1.978,1.79a5.727,5.727,0,0,0,.629-1.36,5.125,5.125,0,0,0,.23-1.534,5.014,5.014,0,0,0-.245-1.576,6.082,6.082,0,0,0-.646-1.375,6.774,6.774,0,0,1,2.262,1.118,6.436,6.436,0,0,1,1.534,1.776,5.581,5.581,0,0,1,.7,2.951Zm25.047-8.338a10.9,10.9,0,0,0-3.725.572,6.656,6.656,0,0,0-2.607,1.662,6.852,6.852,0,0,0-1.534,2.621,11.177,11.177,0,0,0-.5,3.48h-4.933v-8.281h-2.436v9.2c0,.938-.009,1.809-.029,2.621a6.534,6.534,0,0,1-.415,2.22,4.6,4.6,0,0,1-1.3,1.8,7.7,7.7,0,0,1-2.749,1.375,10.13,10.13,0,0,0,3.725-.558,4.512,4.512,0,0,0,2.092-1.6,5.815,5.815,0,0,0,.916-2.536q.114-.848.161-1.8h15.774V593.462h-2.436Zm0,8.338h-5.93a10.588,10.588,0,0,1,.344-2.979,3.75,3.75,0,0,1,1.075-1.79,4.026,4.026,0,0,1,1.847-.888,12.731,12.731,0,0,1,2.664-.245Zm13.119-8.366a11.362,11.362,0,0,0-3.495.5,6.839,6.839,0,0,0-2.635,1.534,6.692,6.692,0,0,0-1.662,2.607,10.9,10.9,0,0,0-.572,3.725v2.436h8.366v1.1a6.537,6.537,0,0,1-.358,2.22,4.369,4.369,0,0,1-1.261,1.8,7.5,7.5,0,0,1-2.735,1.375,10.01,10.01,0,0,0,3.711-.558,4.318,4.318,0,0,0,2.049-1.6,5.749,5.749,0,0,0,.859-2.536,29.344,29.344,0,0,0,.171-3.324v-9.283ZM467.41,601.8a12.556,12.556,0,0,1,.245-2.664,4.015,4.015,0,0,1,.888-1.847,3.772,3.772,0,0,1,1.8-1.076,10.745,10.745,0,0,1,2.994-.344V601.8Zm-6.1-14.8a1.341,1.341,0,1,1-1.341,1.341A1.341,1.341,0,0,1,461.313,587Z" transform="translate(-417.71 -587)" fill="#fff"/>
      </g>
      <g id="Group_10808" data-name="Group 10808" transform="translate(3.849)">
        <path id="Path_17184" data-name="Path 17184" d="M459.187,413.462v0c-.026-.038-.055-.081-.081-.124v0a13.54,13.54,0,0,1,0-13.639c-.076-.131-.152-.254-.237-.378a13.437,13.437,0,0,0-1.878-2.36l-.012-.012a13.513,13.513,0,0,0-19.107,19.114L440,418.182l16.462,16.462A21.907,21.907,0,0,0,459.187,413.462Zm-8.865-5.6a3.135,3.135,0,0,1-1.538,1.538,3.174,3.174,0,0,1-3.6-.631l-.012-.012a3.19,3.19,0,0,1,.012-4.5,3.41,3.41,0,0,1,.347-.3h0a3.168,3.168,0,0,1,4.148.287l.012.012a3.162,3.162,0,0,1,.831,1.458A3.2,3.2,0,0,1,450.322,407.859Z" transform="translate(-433.922 -392.996)" fill="#ffd36a"/>
        <path id="Path_17185" data-name="Path 17185" d="M462.681,437.853l-.358-.359.358-.358.358.358Zm-.731-1.446-.731-.731-.359.358.731.731Zm-1.462-1.462-.731-.731-.359.359.731.731Zm-1.46-1.462-.731-.731-.358.358.731.731Zm-1.462-1.462-.731-.731-.358.358.731.731Zm-1.462-1.462-.731-.731-.358.358.731.731Zm-1.462-1.462-.731-.731-.358.358.731.731Zm-1.462-1.462-.731-.731-.358.359.731.731Zm-1.462-1.46-.731-.731-.359.359.731.731Zm-1.46-1.462-.731-.731-.359.358.731.731Zm-1.462-1.462-.731-.731-.358.358.731.731Zm-1.462-1.462-.731-.731-.359.359.731.731Zm-1.42-1.474c-.218-.259-.425-.527-.617-.8l-.415.29c.2.285.418.567.646.836Zm-1.159-1.652c-.166-.292-.321-.6-.458-.9l-.461.209c.145.318.306.636.48.943Zm-.829-1.838a9.992,9.992,0,0,1-.28-.969l-.491.119c.083.342.18.684.294,1.016Zm-.47-1.961c-.047-.332-.081-.669-.095-1l-.506.024c.017.351.05.705.1,1.052Zm-.009-3.022-.5-.066c-.048.349-.078.7-.093,1.052l.506.021C443.37,412.509,443.4,412.17,443.444,411.838Zm.451-1.968-.48-.159c-.109.332-.207.677-.285,1.018l.494.112C443.7,410.515,443.79,410.188,443.895,409.869Zm.8-1.821.017-.031-.461-.216c-.166.3-.318.61-.456.921l.463.2C444.388,408.63,444.533,408.333,444.69,408.048Zm1.151-1.693-.389-.323c-.223.271-.437.556-.636.845l.418.285A9.953,9.953,0,0,1,445.841,406.356Zm1.422-1.432-.325-.389c-.261.218-.515.451-.757.693l-.021.024.382.332C446.772,405.354,447.014,405.133,447.263,404.924Zm1.659-1.147-.247-.442c-.3.171-.608.359-.9.56l.287.418C448.344,404.119,448.633,403.941,448.923,403.777Zm1.845-.819-.161-.48c-.332.112-.665.24-.985.382l.206.463C450.134,403.189,450.449,403.065,450.768,402.958Zm1.963-.458-.069-.5c-.349.047-.7.114-1.04.192l.116.494A10,10,0,0,1,452.731,402.5Zm1.515-.1v-.506c-.173,0-.347,0-.518.012l.024.506C453.913,402.4,454.08,402.4,454.246,402.4Zm.518-.494c-.171-.007-.344-.012-.518-.012v.506c.166,0,.33,0,.494.012Zm7.569,3.352-.026-.026c-.237-.237-.487-.465-.741-.679l-.325.387c.245.2.482.423.71.651l.038.038Zm-1.61-1.349c-.29-.2-.594-.392-.9-.563l-.249.442c.292.164.582.347.859.539Zm-1.849-1.04c-.323-.142-.655-.273-.99-.385l-.161.48c.32.107.636.23.945.368Zm-2.008-.677c-.342-.081-.693-.145-1.045-.192l-.069.5c.335.045.672.109,1,.185Zm6.515,4.278c-.1-.138-.209-.275-.318-.408l-.392.32c.1.128.207.256.3.389Z" transform="translate(-440.731 -399.779)" fill="#2fb2a2"/>
        <path id="Path_17186" data-name="Path 17186" d="M555.323,396.952a13.516,13.516,0,0,0-19.1-.012l-.135.135a13.107,13.107,0,0,0-1.759,2.229c-.081.123-.161.254-.237.382a13.54,13.54,0,0,0,0,13.639v0c.026.043.055.085.081.123v0c.1.161.2.318.3.48a21.9,21.9,0,0,1-.389,23.34l0,0L553.2,418.177l2.127-2.127A13.514,13.514,0,0,0,555.323,396.952Zm-7.289,11.8-.012.012a3.184,3.184,0,0,1-3.6.636,3.1,3.1,0,0,1-.919-.636,3.055,3.055,0,0,1-.636-.919,3.2,3.2,0,0,1,.636-3.6l.012-.012a3.193,3.193,0,0,1,4.516,4.516Z" transform="translate(-508.91 -392.996)" fill="#fff"/>
      </g>
    </g>
    <g id="Group_10810" data-name="Group 10810" transform="translate(451.458 438.787)">
      <path id="Path_17187" data-name="Path 17187" d="M559.912,586.715a1.359,1.359,0,0,1,.444-.211,1.8,1.8,0,0,1,.51-.078c-.014.147-.021.332-.021.553v.42a.806.806,0,0,0,.233.574.726.726,0,0,0,.541.242,1.348,1.348,0,0,0,.264-.033.453.453,0,0,0,.2-.078.838.838,0,0,0,.066-.3c.014-.154.021-.313.021-.475q0-.132-.021-.4c-.017-.176-.038-.347-.066-.508a1.471,1.471,0,0,1,.453-.176,2.091,2.091,0,0,1,.5-.066l.088,1.261.066.154a1.032,1.032,0,0,0,.366.465.836.836,0,0,0,.475.154.779.779,0,0,0,.309-.043,1.065,1.065,0,0,0,.067-.332c.014-.161.021-.339.021-.532a5.477,5.477,0,0,0-.033-.553c-.024-.2-.047-.4-.078-.575a1.746,1.746,0,0,1,.442-.211,1.538,1.538,0,0,1,.487-.1c.043.249.074.472.088.662s.021.368.021.532a1.831,1.831,0,0,1-.442,1.36,1.375,1.375,0,0,1-.973.432,1.8,1.8,0,0,1-.686-.112,1.185,1.185,0,0,1-.465-.354,1.7,1.7,0,0,1-1.263.465,1.749,1.749,0,0,1-1.215-.4,1.386,1.386,0,0,1-.444-1.085c0-.116,0-.24.012-.366S559.9,586.789,559.912,586.715Z" transform="translate(-559.86 -585.87)" fill="#fff"/>
    </g>
  </g>
</svg>
