<svg id="Group_17151" data-name="Group 17151" xmlns="http://www.w3.org/2000/svg" xmlns:xlink="http://www.w3.org/1999/xlink" width="1600" height="110" viewBox="0 0 1600 110">
  <defs>
    <clipPath id="clip-path">
      <rect id="Rectangle_18336" data-name="Rectangle 18336" width="1600" height="110" transform="translate(-9083 -15111)" fill="#2fb2a2"/>
    </clipPath>
  </defs>
  <rect id="Rectangle_18331" data-name="Rectangle 18331" width="1600" height="110" fill="#2fb2a2"/>
  <g id="Mask_Group_23" data-name="Mask Group 23" transform="translate(9083 15111)" opacity="0.3" clip-path="url(#clip-path)">
    <g id="Group_10849" data-name="Group 10849" transform="translate(28 16)">
      <g id="Group_15" data-name="Group 15" transform="translate(-8335 -15207.23)">
        <path id="Fill_418" data-name="Fill 418" d="M.741.545a.269.269,0,1,0-.329.19A.268.268,0,0,0,.741.545" transform="translate(141.996 204)" fill="#ffc764"/>
        <path id="Fill_488" data-name="Fill 488" d="M.006,2.028Q.947,4.959,1.89,7.892c-.126-.393,2.254-1.6,2.116-2.029L2.121,0C2.247.392-.133,1.6.006,2.028" transform="translate(45.531 176.065)" fill="#ff7273"/>
        <path id="Fill_490" data-name="Fill 490" d="M0,2.028V6.569c0-.184.917-.858,1.068-1,.177-.17,1.048-.772,1.048-1.025V0c0,.184-.916.858-1.068,1C.871,1.173,0,1.775,0,2.028" transform="translate(185.32 155.326)" fill="#ff7273"/>
        <path id="Fill_494" data-name="Fill 494" d="M0,2.028A11.65,11.65,0,0,0,4.465,5.409c.1.042.965-.907,1.067-1A8.584,8.584,0,0,1,6.58,3.38,11.652,11.652,0,0,1,2.117,0C2.159.051-.068,1.943,0,2.028" transform="translate(348.133 142.287)" fill="#ff7273"/>
        <path id="Fill_500" data-name="Fill 500" d="M.006,2.028A14.35,14.35,0,0,1,.668,7.859c.02-.219.9-.839,1.069-1,.2-.192,1.022-.739,1.048-1.025A14.348,14.348,0,0,0,2.122,0C2.248.386-.133,1.6.006,2.028" transform="translate(263.067 198.805)" fill="#ff7273"/>
        <path id="Fill_502" data-name="Fill 502" d="M.167,2.028A9.244,9.244,0,0,0,.674,7.249C.544,6.921,2.935,5.585,2.789,5.22A9.25,9.25,0,0,1,2.283,0c-.048.255-.87.814-1.068,1C.988,1.221.227,1.708.167,2.028" transform="translate(33.529 98.228)" fill="#ffc764"/>
        <path id="Fill_506" data-name="Fill 506" d="M0,2.028A9.292,9.292,0,0,0,1.978,7.879c-.055-.07,2.2-1.923,2.116-2.028A9.308,9.308,0,0,1,2.115,0c0,.187-.915.857-1.067,1C.869,1.174,0,1.772,0,2.028" transform="translate(422.528 100.174)" fill="#ffc764"/>
        <path id="Fill_508" data-name="Fill 508" d="M.66,2.028A11.987,11.987,0,0,1,0,7.211c.112-.312.821-.768,1.068-1,.273-.261.917-.659,1.048-1.024A11.987,11.987,0,0,0,2.776,0c.013.153-.934.875-1.068,1C1.552,1.153.64,1.808.66,2.028" transform="translate(291.831 142.999)" fill="#ffc764"/>
        <path id="Fill_514" data-name="Fill 514" d="M0,2.028,3.247,5.292c.023.024,2.123-2.019,2.116-2.028L2.116,0C2.093-.024-.008,2.019,0,2.028" transform="translate(2.277 139.802)" fill="#6487fe"/>
        <path id="Fill_516" data-name="Fill 516" d="M0,2.028A9.222,9.222,0,0,0,2.739,7.18c.039.037,2.108-2.035,2.116-2.029A9.233,9.233,0,0,1,2.115,0c.022.125-.948.888-1.067,1C.909,1.136-.032,1.838,0,2.028" transform="translate(409.384 173.509)" fill="#6487fe"/>
        <path id="Fill_518" data-name="Fill 518" d="M2.778,5.71A9.255,9.255,0,0,0,6.174.959C6.19.908,3.393.01,3.4,0A9.248,9.248,0,0,1,0,4.75a6.919,6.919,0,0,1,1.384.494c.182.062,1.238.58,1.394.466" transform="translate(137.887 180.996)" fill="#6487fe"/>
        <path id="Fill_522" data-name="Fill 522" d="M.031,2.028A4.923,4.923,0,0,0,3.867,7.352c.157.034.94-.88,1.069-1s.895-1.057,1.047-1.024A4.922,4.922,0,0,1,2.147,0c-.026.227-.89.832-1.068,1C.872,1.2.065,1.733.031,2.028" transform="translate(246.723 151.433)" fill="#6487fe"/>
        <path id="Fill_532" data-name="Fill 532" d="M.577,1.186A.593.593,0,0,0,.577,0a.593.593,0,0,0,0,1.186" transform="translate(407.354 141.473)" fill="#ffc764"/>
        <path id="Fill_534" data-name="Fill 534" d="M1.6,3.285A1.643,1.643,0,0,0,1.6,0a1.643,1.643,0,0,0,0,3.285" transform="translate(345.553 194.926)" fill="#ffc764"/>
        <path id="Fill_536" data-name="Fill 536" d="M2.153.188A2.7,2.7,0,0,0,1.357,0,1.557,1.557,0,0,0,.35.449a1.181,1.181,0,0,0,0,1.679,1.557,1.557,0,0,0,1.007.449,2.674,2.674,0,0,0,.8-.188,1.148,1.148,0,0,0,0-2.2" transform="translate(213.94 186.845)" fill="#ffc764"/>
        <path id="Fill_538" data-name="Fill 538" d="M1.287,2.646A1.324,1.324,0,0,0,1.287,0a1.324,1.324,0,0,0,0,2.646" transform="translate(64.184 139.445)" fill="#6487fe"/>
        <path id="Fill_544" data-name="Fill 544" d="M.755,1.551A.776.776,0,0,0,.755,0a.776.776,0,0,0,0,1.551" transform="translate(311.759 180.869)" fill="#6487fe"/>
        <path id="Fill_546" data-name="Fill 546" d="M.887,1.826A.913.913,0,0,0,.887,0a.913.913,0,0,0,0,1.826" transform="translate(169.152 201.495)" fill="#6487fe"/>
        <path id="Fill_548" data-name="Fill 548" d="M.769,1.581A.791.791,0,0,0,.769,0a.791.791,0,0,0,0,1.581" transform="translate(0 82.231)" fill="#ff7273"/>
        <path id="Fill_556" data-name="Fill 556" d="M.481.989A.5.5,0,0,0,.481,0a.494.494,0,0,0,0,.989" transform="translate(95.053 198.02)" fill="#ff7273"/>
        <path id="Fill_558" data-name="Fill 558" d="M1.036.014l-.625.1a.573.573,0,0,0,0,1.1l.625.1a.671.671,0,1,0,0-1.305" transform="translate(8.701 212.771)" fill="#ff7273"/>
        <path id="Fill_560" data-name="Fill 560" d="M.776,1.6a.8.8,0,0,0,0-1.6.8.8,0,0,0,0,1.6" transform="translate(335.264 117.909)" fill="#ff7273"/>
        <path id="Fill_562" data-name="Fill 562" d="M.673,1.384A.692.692,0,0,0,.673,0a.692.692,0,0,0,0,1.384" transform="translate(443.857 168.625)" fill="#ff7273"/>
        <path id="Fill_564" data-name="Fill 564" d="M.755,1.551A.776.776,0,0,0,.755,0a.776.776,0,0,0,0,1.551" transform="translate(387.57 197.739)" fill="#ff7273"/>
        <path id="Fill_566" data-name="Fill 566" d="M1.138.036.681.156a.954.954,0,0,0,0,1.827l.458.12A1.092,1.092,0,0,0,2.5,1.069,1.092,1.092,0,0,0,1.138.036" transform="translate(401.932 126.721)" fill="#ff7273"/>
        <path id="Fill_568" data-name="Fill 568" d="M1.065,2.189A1.1,1.1,0,0,0,1.065,0a1.1,1.1,0,0,0,0,2.189" transform="translate(35.649 146.162)" fill="#ff7273"/>
        <path id="Fill_579" data-name="Fill 579" d="M.481.857A.38.38,0,0,0,.481.1a.38.38,0,0,0,0,.761" transform="translate(384.25 166.244)" fill="#ffc764"/>
        <path id="Fill_581" data-name="Fill 581" d="M.562,1.156A.578.578,0,0,0,.562,0a.578.578,0,0,0,0,1.156" transform="translate(14.585 177.822)" fill="#ffc764"/>
        <path id="Fill_490-2" data-name="Fill 490" d="M0,4.541V0C0,.184.917.858,1.068,1c.177.17,1.048.772,1.048,1.025V6.569c0-.184-.916-.858-1.068-1C.871,5.4,0,4.794,0,4.541" transform="translate(195.32 71.23)" fill="#ff7273"/>
        <path id="Fill_494-2" data-name="Fill 494" d="M0,3.382A11.65,11.65,0,0,1,4.465,0c.1-.042.965.907,1.067,1A8.584,8.584,0,0,0,6.58,2.03,11.652,11.652,0,0,0,2.117,5.41C2.159,5.36-.068,3.467,0,3.382" transform="translate(358.133 85.429)" fill="#ff7273"/>
        <path id="Fill_502-2" data-name="Fill 502" d="M.167,5.221A9.244,9.244,0,0,1,.674,0C.544.327,2.935,1.663,2.789,2.029a9.25,9.25,0,0,0-.507,5.22c-.048-.255-.87-.814-1.068-1C.988,6.028.227,5.541.167,5.221" transform="translate(43.528 127.649)" fill="#ffc764"/>
        <path id="Fill_506-2" data-name="Fill 506" d="M0,5.851A9.292,9.292,0,0,1,1.978,0c-.055.07,2.2,1.923,2.116,2.028A9.308,9.308,0,0,0,2.115,7.879c0-.187-.915-.857-1.067-1C.869,6.7,0,6.106,0,5.851" transform="translate(432.528 125.074)" fill="#ffc764"/>
        <path id="Fill_508-2" data-name="Fill 508" d="M.66,5.183A11.987,11.987,0,0,0,0,0C.112.312.821.768,1.068,1c.273.261.917.659,1.048,1.024a11.987,11.987,0,0,1,.66,5.183c.013-.153-.934-.875-1.068-1C1.552,6.058.64,5.4.66,5.183" transform="translate(301.831 82.916)" fill="#ffc764"/>
        <path id="Fill_514-2" data-name="Fill 514" d="M0,3.264,3.247,0C3.27-.024,5.37,2.019,5.363,2.028L2.116,5.292C2.093,5.316-.008,3.272,0,3.264" transform="translate(12.277 88.032)" fill="#6487fe"/>
        <path id="Fill_522-2" data-name="Fill 522" d="M.031,5.325A4.923,4.923,0,0,1,3.867,0c.157-.034.94.88,1.069,1s.895,1.057,1.047,1.024A4.922,4.922,0,0,0,2.147,7.353c-.026-.227-.89-.832-1.068-1C.872,6.151.065,5.62.031,5.325" transform="translate(256.723 74.341)" fill="#6487fe"/>
        <path id="Fill_532-2" data-name="Fill 532" d="M.577,0a.593.593,0,0,1,0,1.186A.593.593,0,0,1,.577,0" transform="translate(417.354 90.467)" fill="#ffc764"/>
        <path id="Fill_538-2" data-name="Fill 538" d="M1.287,0a1.324,1.324,0,0,1,0,2.646A1.324,1.324,0,0,1,1.287,0" transform="translate(74.184 91.035)" fill="#6487fe"/>
        <path id="Fill_548-2" data-name="Fill 548" d="M.769,0a.791.791,0,0,1,0,1.581A.791.791,0,0,1,.769,0" transform="translate(10 149.314)" fill="#ff7273"/>
        <path id="Fill_560-2" data-name="Fill 560" d="M.776,0a.8.8,0,0,1,0,1.6.8.8,0,0,1,0-1.6" transform="translate(345.264 113.62)" fill="#ff7273"/>
        <path id="Fill_566-2" data-name="Fill 566" d="M1.138,2.1l-.458-.12a.954.954,0,0,1,0-1.827l.458-.12A1.092,1.092,0,0,1,2.5,1.07,1.092,1.092,0,0,1,1.138,2.1" transform="translate(411.932 104.265)" fill="#ff7273"/>
        <path id="Fill_568-2" data-name="Fill 568" d="M1.065,0a1.1,1.1,0,0,1,0,2.189A1.1,1.1,0,0,1,1.065,0" transform="translate(45.649 84.775)" fill="#ff7273"/>
      </g>
      <g id="Group_15-2" data-name="Group 15" transform="translate(-8079 -15207.23)">
        <path id="Fill_418-2" data-name="Fill 418" d="M.741.545a.269.269,0,1,0-.329.19A.268.268,0,0,0,.741.545" transform="translate(141.996 204)" fill="#ffc764"/>
        <path id="Fill_488-2" data-name="Fill 488" d="M.006,2.028Q.947,4.959,1.89,7.892c-.126-.393,2.254-1.6,2.116-2.029L2.121,0C2.247.392-.133,1.6.006,2.028" transform="translate(45.531 176.065)" fill="#ff7273"/>
        <path id="Fill_490-3" data-name="Fill 490" d="M0,2.028V6.569c0-.184.917-.858,1.068-1,.177-.17,1.048-.772,1.048-1.025V0c0,.184-.916.858-1.068,1C.871,1.173,0,1.775,0,2.028" transform="translate(185.32 155.326)" fill="#ff7273"/>
        <path id="Fill_494-3" data-name="Fill 494" d="M0,2.028A11.65,11.65,0,0,0,4.465,5.409c.1.042.965-.907,1.067-1A8.584,8.584,0,0,1,6.58,3.38,11.652,11.652,0,0,1,2.117,0C2.159.051-.068,1.943,0,2.028" transform="translate(348.133 142.287)" fill="#ff7273"/>
        <path id="Fill_500-2" data-name="Fill 500" d="M.006,2.028A14.35,14.35,0,0,1,.668,7.859c.02-.219.9-.839,1.069-1,.2-.192,1.022-.739,1.048-1.025A14.348,14.348,0,0,0,2.122,0C2.248.386-.133,1.6.006,2.028" transform="translate(263.067 198.805)" fill="#ff7273"/>
        <path id="Fill_502-3" data-name="Fill 502" d="M.167,2.028A9.244,9.244,0,0,0,.674,7.249C.544,6.921,2.935,5.585,2.789,5.22A9.25,9.25,0,0,1,2.283,0c-.048.255-.87.814-1.068,1C.988,1.221.227,1.708.167,2.028" transform="translate(33.529 98.228)" fill="#ffc764"/>
        <path id="Fill_506-3" data-name="Fill 506" d="M0,2.028A9.292,9.292,0,0,0,1.978,7.879c-.055-.07,2.2-1.923,2.116-2.028A9.308,9.308,0,0,1,2.115,0c0,.187-.915.857-1.067,1C.869,1.174,0,1.772,0,2.028" transform="translate(422.528 100.174)" fill="#ffc764"/>
        <path id="Fill_508-3" data-name="Fill 508" d="M.66,2.028A11.987,11.987,0,0,1,0,7.211c.112-.312.821-.768,1.068-1,.273-.261.917-.659,1.048-1.024A11.987,11.987,0,0,0,2.776,0c.013.153-.934.875-1.068,1C1.552,1.153.64,1.808.66,2.028" transform="translate(291.831 142.999)" fill="#ffc764"/>
        <path id="Fill_514-3" data-name="Fill 514" d="M0,2.028,3.247,5.292c.023.024,2.123-2.019,2.116-2.028L2.116,0C2.093-.024-.008,2.019,0,2.028" transform="translate(2.277 139.802)" fill="#6487fe"/>
        <path id="Fill_516-2" data-name="Fill 516" d="M0,2.028A9.222,9.222,0,0,0,2.739,7.18c.039.037,2.108-2.035,2.116-2.029A9.233,9.233,0,0,1,2.115,0c.022.125-.948.888-1.067,1C.909,1.136-.032,1.838,0,2.028" transform="translate(409.384 173.509)" fill="#6487fe"/>
        <path id="Fill_518-2" data-name="Fill 518" d="M2.778,5.71A9.255,9.255,0,0,0,6.174.959C6.19.908,3.393.01,3.4,0A9.248,9.248,0,0,1,0,4.75a6.919,6.919,0,0,1,1.384.494c.182.062,1.238.58,1.394.466" transform="translate(137.887 180.996)" fill="#6487fe"/>
        <path id="Fill_522-3" data-name="Fill 522" d="M.031,2.028A4.923,4.923,0,0,0,3.867,7.352c.157.034.94-.88,1.069-1s.895-1.057,1.047-1.024A4.922,4.922,0,0,1,2.147,0c-.026.227-.89.832-1.068,1C.872,1.2.065,1.733.031,2.028" transform="translate(246.723 151.433)" fill="#6487fe"/>
        <path id="Fill_532-3" data-name="Fill 532" d="M.577,1.186A.593.593,0,0,0,.577,0a.593.593,0,0,0,0,1.186" transform="translate(407.354 141.473)" fill="#ffc764"/>
        <path id="Fill_534-2" data-name="Fill 534" d="M1.6,3.285A1.643,1.643,0,0,0,1.6,0a1.643,1.643,0,0,0,0,3.285" transform="translate(345.553 194.926)" fill="#ffc764"/>
        <path id="Fill_536-2" data-name="Fill 536" d="M2.153.188A2.7,2.7,0,0,0,1.357,0,1.557,1.557,0,0,0,.35.449a1.181,1.181,0,0,0,0,1.679,1.557,1.557,0,0,0,1.007.449,2.674,2.674,0,0,0,.8-.188,1.148,1.148,0,0,0,0-2.2" transform="translate(213.94 186.845)" fill="#ffc764"/>
        <path id="Fill_538-3" data-name="Fill 538" d="M1.287,2.646A1.324,1.324,0,0,0,1.287,0a1.324,1.324,0,0,0,0,2.646" transform="translate(64.184 139.445)" fill="#6487fe"/>
        <path id="Fill_544-2" data-name="Fill 544" d="M.755,1.551A.776.776,0,0,0,.755,0a.776.776,0,0,0,0,1.551" transform="translate(311.759 180.869)" fill="#6487fe"/>
        <path id="Fill_546-2" data-name="Fill 546" d="M.887,1.826A.913.913,0,0,0,.887,0a.913.913,0,0,0,0,1.826" transform="translate(169.152 201.495)" fill="#6487fe"/>
        <path id="Fill_548-3" data-name="Fill 548" d="M.769,1.581A.791.791,0,0,0,.769,0a.791.791,0,0,0,0,1.581" transform="translate(0 82.231)" fill="#ff7273"/>
        <path id="Fill_556-2" data-name="Fill 556" d="M.481.989A.5.5,0,0,0,.481,0a.494.494,0,0,0,0,.989" transform="translate(95.053 198.02)" fill="#ff7273"/>
        <path id="Fill_558-2" data-name="Fill 558" d="M1.036.014l-.625.1a.573.573,0,0,0,0,1.1l.625.1a.671.671,0,1,0,0-1.305" transform="translate(8.701 212.771)" fill="#ff7273"/>
        <path id="Fill_560-3" data-name="Fill 560" d="M.776,1.6a.8.8,0,0,0,0-1.6.8.8,0,0,0,0,1.6" transform="translate(335.264 117.909)" fill="#ff7273"/>
        <path id="Fill_562-2" data-name="Fill 562" d="M.673,1.384A.692.692,0,0,0,.673,0a.692.692,0,0,0,0,1.384" transform="translate(443.857 168.625)" fill="#ff7273"/>
        <path id="Fill_564-2" data-name="Fill 564" d="M.755,1.551A.776.776,0,0,0,.755,0a.776.776,0,0,0,0,1.551" transform="translate(387.57 197.739)" fill="#ff7273"/>
        <path id="Fill_566-3" data-name="Fill 566" d="M1.138.036.681.156a.954.954,0,0,0,0,1.827l.458.12A1.092,1.092,0,0,0,2.5,1.069,1.092,1.092,0,0,0,1.138.036" transform="translate(401.932 126.721)" fill="#ff7273"/>
        <path id="Fill_568-3" data-name="Fill 568" d="M1.065,2.189A1.1,1.1,0,0,0,1.065,0a1.1,1.1,0,0,0,0,2.189" transform="translate(35.649 146.162)" fill="#ff7273"/>
        <path id="Fill_579-2" data-name="Fill 579" d="M.481.857A.38.38,0,0,0,.481.1a.38.38,0,0,0,0,.761" transform="translate(384.25 166.244)" fill="#ffc764"/>
        <path id="Fill_581-2" data-name="Fill 581" d="M.562,1.156A.578.578,0,0,0,.562,0a.578.578,0,0,0,0,1.156" transform="translate(14.585 177.822)" fill="#ffc764"/>
        <path id="Fill_490-4" data-name="Fill 490" d="M0,4.541V0C0,.184.917.858,1.068,1c.177.17,1.048.772,1.048,1.025V6.569c0-.184-.916-.858-1.068-1C.871,5.4,0,4.794,0,4.541" transform="translate(195.32 71.23)" fill="#ff7273"/>
        <path id="Fill_494-4" data-name="Fill 494" d="M0,3.382A11.65,11.65,0,0,1,4.465,0c.1-.042.965.907,1.067,1A8.584,8.584,0,0,0,6.58,2.03,11.652,11.652,0,0,0,2.117,5.41C2.159,5.36-.068,3.467,0,3.382" transform="translate(358.133 85.429)" fill="#ff7273"/>
        <path id="Fill_502-4" data-name="Fill 502" d="M.167,5.221A9.244,9.244,0,0,1,.674,0C.544.327,2.935,1.663,2.789,2.029a9.25,9.25,0,0,0-.507,5.22c-.048-.255-.87-.814-1.068-1C.988,6.028.227,5.541.167,5.221" transform="translate(43.528 127.649)" fill="#ffc764"/>
        <path id="Fill_506-4" data-name="Fill 506" d="M0,5.851A9.292,9.292,0,0,1,1.978,0c-.055.07,2.2,1.923,2.116,2.028A9.308,9.308,0,0,0,2.115,7.879c0-.187-.915-.857-1.067-1C.869,6.7,0,6.106,0,5.851" transform="translate(432.528 125.074)" fill="#ffc764"/>
        <path id="Fill_508-4" data-name="Fill 508" d="M.66,5.183A11.987,11.987,0,0,0,0,0C.112.312.821.768,1.068,1c.273.261.917.659,1.048,1.024a11.987,11.987,0,0,1,.66,5.183c.013-.153-.934-.875-1.068-1C1.552,6.058.64,5.4.66,5.183" transform="translate(301.831 82.916)" fill="#ffc764"/>
        <path id="Fill_514-4" data-name="Fill 514" d="M0,3.264,3.247,0C3.27-.024,5.37,2.019,5.363,2.028L2.116,5.292C2.093,5.316-.008,3.272,0,3.264" transform="translate(12.277 88.032)" fill="#6487fe"/>
        <path id="Fill_522-4" data-name="Fill 522" d="M.031,5.325A4.923,4.923,0,0,1,3.867,0c.157-.034.94.88,1.069,1s.895,1.057,1.047,1.024A4.922,4.922,0,0,0,2.147,7.353c-.026-.227-.89-.832-1.068-1C.872,6.151.065,5.62.031,5.325" transform="translate(256.723 74.341)" fill="#6487fe"/>
        <path id="Fill_532-4" data-name="Fill 532" d="M.577,0a.593.593,0,0,1,0,1.186A.593.593,0,0,1,.577,0" transform="translate(417.354 90.467)" fill="#ffc764"/>
        <path id="Fill_538-4" data-name="Fill 538" d="M1.287,0a1.324,1.324,0,0,1,0,2.646A1.324,1.324,0,0,1,1.287,0" transform="translate(74.184 91.035)" fill="#6487fe"/>
        <path id="Fill_548-4" data-name="Fill 548" d="M.769,0a.791.791,0,0,1,0,1.581A.791.791,0,0,1,.769,0" transform="translate(10 149.314)" fill="#ff7273"/>
        <path id="Fill_560-4" data-name="Fill 560" d="M.776,0a.8.8,0,0,1,0,1.6.8.8,0,0,1,0-1.6" transform="translate(345.264 113.62)" fill="#ff7273"/>
        <path id="Fill_566-4" data-name="Fill 566" d="M1.138,2.1l-.458-.12a.954.954,0,0,1,0-1.827l.458-.12A1.092,1.092,0,0,1,2.5,1.07,1.092,1.092,0,0,1,1.138,2.1" transform="translate(411.932 104.265)" fill="#ff7273"/>
        <path id="Fill_568-4" data-name="Fill 568" d="M1.065,0a1.1,1.1,0,0,1,0,2.189A1.1,1.1,0,0,1,1.065,0" transform="translate(45.649 84.775)" fill="#ff7273"/>
      </g>
      <g id="Group_15-3" data-name="Group 15" transform="translate(-8594 -15207.23)">
        <path id="Fill_418-3" data-name="Fill 418" d="M.741.545a.269.269,0,1,0-.329.19A.268.268,0,0,0,.741.545" transform="translate(141.996 204)" fill="#ffc764"/>
        <path id="Fill_488-3" data-name="Fill 488" d="M.006,2.028Q.947,4.959,1.89,7.892c-.126-.393,2.254-1.6,2.116-2.029L2.121,0C2.247.392-.133,1.6.006,2.028" transform="translate(45.531 176.065)" fill="#ff7273"/>
        <path id="Fill_490-5" data-name="Fill 490" d="M0,2.028V6.569c0-.184.917-.858,1.068-1,.177-.17,1.048-.772,1.048-1.025V0c0,.184-.916.858-1.068,1C.871,1.173,0,1.775,0,2.028" transform="translate(185.32 155.326)" fill="#ff7273"/>
        <path id="Fill_494-5" data-name="Fill 494" d="M0,2.028A11.65,11.65,0,0,0,4.465,5.409c.1.042.965-.907,1.067-1A8.584,8.584,0,0,1,6.58,3.38,11.652,11.652,0,0,1,2.117,0C2.159.051-.068,1.943,0,2.028" transform="translate(348.133 142.287)" fill="#ff7273"/>
        <path id="Fill_500-3" data-name="Fill 500" d="M.006,2.028A14.35,14.35,0,0,1,.668,7.859c.02-.219.9-.839,1.069-1,.2-.192,1.022-.739,1.048-1.025A14.348,14.348,0,0,0,2.122,0C2.248.386-.133,1.6.006,2.028" transform="translate(263.067 198.805)" fill="#ff7273"/>
        <path id="Fill_502-5" data-name="Fill 502" d="M.167,2.028A9.244,9.244,0,0,0,.674,7.249C.544,6.921,2.935,5.585,2.789,5.22A9.25,9.25,0,0,1,2.283,0c-.048.255-.87.814-1.068,1C.988,1.221.227,1.708.167,2.028" transform="translate(33.529 98.228)" fill="#ffc764"/>
        <path id="Fill_506-5" data-name="Fill 506" d="M0,2.028A9.292,9.292,0,0,0,1.978,7.879c-.055-.07,2.2-1.923,2.116-2.028A9.308,9.308,0,0,1,2.115,0c0,.187-.915.857-1.067,1C.869,1.174,0,1.772,0,2.028" transform="translate(422.528 100.174)" fill="#ffc764"/>
        <path id="Fill_508-5" data-name="Fill 508" d="M.66,2.028A11.987,11.987,0,0,1,0,7.211c.112-.312.821-.768,1.068-1,.273-.261.917-.659,1.048-1.024A11.987,11.987,0,0,0,2.776,0c.013.153-.934.875-1.068,1C1.552,1.153.64,1.808.66,2.028" transform="translate(291.831 142.999)" fill="#ffc764"/>
        <path id="Fill_514-5" data-name="Fill 514" d="M0,2.028,3.247,5.292c.023.024,2.123-2.019,2.116-2.028L2.116,0C2.093-.024-.008,2.019,0,2.028" transform="translate(2.277 139.802)" fill="#6487fe"/>
        <path id="Fill_516-3" data-name="Fill 516" d="M0,2.028A9.222,9.222,0,0,0,2.739,7.18c.039.037,2.108-2.035,2.116-2.029A9.233,9.233,0,0,1,2.115,0c.022.125-.948.888-1.067,1C.909,1.136-.032,1.838,0,2.028" transform="translate(409.384 173.509)" fill="#6487fe"/>
        <path id="Fill_518-3" data-name="Fill 518" d="M2.778,5.71A9.255,9.255,0,0,0,6.174.959C6.19.908,3.393.01,3.4,0A9.248,9.248,0,0,1,0,4.75a6.919,6.919,0,0,1,1.384.494c.182.062,1.238.58,1.394.466" transform="translate(137.887 180.996)" fill="#6487fe"/>
        <path id="Fill_522-5" data-name="Fill 522" d="M.031,2.028A4.923,4.923,0,0,0,3.867,7.352c.157.034.94-.88,1.069-1s.895-1.057,1.047-1.024A4.922,4.922,0,0,1,2.147,0c-.026.227-.89.832-1.068,1C.872,1.2.065,1.733.031,2.028" transform="translate(246.723 151.433)" fill="#6487fe"/>
        <path id="Fill_532-5" data-name="Fill 532" d="M.577,1.186A.593.593,0,0,0,.577,0a.593.593,0,0,0,0,1.186" transform="translate(407.354 141.473)" fill="#ffc764"/>
        <path id="Fill_534-3" data-name="Fill 534" d="M1.6,3.285A1.643,1.643,0,0,0,1.6,0a1.643,1.643,0,0,0,0,3.285" transform="translate(345.553 194.926)" fill="#ffc764"/>
        <path id="Fill_536-3" data-name="Fill 536" d="M2.153.188A2.7,2.7,0,0,0,1.357,0,1.557,1.557,0,0,0,.35.449a1.181,1.181,0,0,0,0,1.679,1.557,1.557,0,0,0,1.007.449,2.674,2.674,0,0,0,.8-.188,1.148,1.148,0,0,0,0-2.2" transform="translate(213.94 186.845)" fill="#ffc764"/>
        <path id="Fill_538-5" data-name="Fill 538" d="M1.287,2.646A1.324,1.324,0,0,0,1.287,0a1.324,1.324,0,0,0,0,2.646" transform="translate(64.184 139.445)" fill="#6487fe"/>
        <path id="Fill_544-3" data-name="Fill 544" d="M.755,1.551A.776.776,0,0,0,.755,0a.776.776,0,0,0,0,1.551" transform="translate(311.759 180.869)" fill="#6487fe"/>
        <path id="Fill_546-3" data-name="Fill 546" d="M.887,1.826A.913.913,0,0,0,.887,0a.913.913,0,0,0,0,1.826" transform="translate(169.152 201.495)" fill="#6487fe"/>
        <path id="Fill_548-5" data-name="Fill 548" d="M.769,1.581A.791.791,0,0,0,.769,0a.791.791,0,0,0,0,1.581" transform="translate(0 82.231)" fill="#ff7273"/>
        <path id="Fill_556-3" data-name="Fill 556" d="M.481.989A.5.5,0,0,0,.481,0a.494.494,0,0,0,0,.989" transform="translate(95.053 198.02)" fill="#ff7273"/>
        <path id="Fill_558-3" data-name="Fill 558" d="M1.036.014l-.625.1a.573.573,0,0,0,0,1.1l.625.1a.671.671,0,1,0,0-1.305" transform="translate(8.701 212.771)" fill="#ff7273"/>
        <path id="Fill_560-5" data-name="Fill 560" d="M.776,1.6a.8.8,0,0,0,0-1.6.8.8,0,0,0,0,1.6" transform="translate(335.264 117.909)" fill="#ff7273"/>
        <path id="Fill_562-3" data-name="Fill 562" d="M.673,1.384A.692.692,0,0,0,.673,0a.692.692,0,0,0,0,1.384" transform="translate(443.857 168.625)" fill="#ff7273"/>
        <path id="Fill_564-3" data-name="Fill 564" d="M.755,1.551A.776.776,0,0,0,.755,0a.776.776,0,0,0,0,1.551" transform="translate(387.57 197.739)" fill="#ff7273"/>
        <path id="Fill_566-5" data-name="Fill 566" d="M1.138.036.681.156a.954.954,0,0,0,0,1.827l.458.12A1.092,1.092,0,0,0,2.5,1.069,1.092,1.092,0,0,0,1.138.036" transform="translate(401.932 126.721)" fill="#ff7273"/>
        <path id="Fill_568-5" data-name="Fill 568" d="M1.065,2.189A1.1,1.1,0,0,0,1.065,0a1.1,1.1,0,0,0,0,2.189" transform="translate(35.649 146.162)" fill="#ff7273"/>
        <path id="Fill_579-3" data-name="Fill 579" d="M.481.857A.38.38,0,0,0,.481.1a.38.38,0,0,0,0,.761" transform="translate(384.25 166.244)" fill="#ffc764"/>
        <path id="Fill_581-3" data-name="Fill 581" d="M.562,1.156A.578.578,0,0,0,.562,0a.578.578,0,0,0,0,1.156" transform="translate(14.585 177.822)" fill="#ffc764"/>
        <path id="Fill_490-6" data-name="Fill 490" d="M0,4.541V0C0,.184.917.858,1.068,1c.177.17,1.048.772,1.048,1.025V6.569c0-.184-.916-.858-1.068-1C.871,5.4,0,4.794,0,4.541" transform="translate(195.32 71.23)" fill="#ff7273"/>
        <path id="Fill_494-6" data-name="Fill 494" d="M0,3.382A11.65,11.65,0,0,1,4.465,0c.1-.042.965.907,1.067,1A8.584,8.584,0,0,0,6.58,2.03,11.652,11.652,0,0,0,2.117,5.41C2.159,5.36-.068,3.467,0,3.382" transform="translate(358.133 85.429)" fill="#ff7273"/>
        <path id="Fill_502-6" data-name="Fill 502" d="M.167,5.221A9.244,9.244,0,0,1,.674,0C.544.327,2.935,1.663,2.789,2.029a9.25,9.25,0,0,0-.507,5.22c-.048-.255-.87-.814-1.068-1C.988,6.028.227,5.541.167,5.221" transform="translate(43.528 127.649)" fill="#ffc764"/>
        <path id="Fill_506-6" data-name="Fill 506" d="M0,5.851A9.292,9.292,0,0,1,1.978,0c-.055.07,2.2,1.923,2.116,2.028A9.308,9.308,0,0,0,2.115,7.879c0-.187-.915-.857-1.067-1C.869,6.7,0,6.106,0,5.851" transform="translate(432.528 125.074)" fill="#ffc764"/>
        <path id="Fill_508-6" data-name="Fill 508" d="M.66,5.183A11.987,11.987,0,0,0,0,0C.112.312.821.768,1.068,1c.273.261.917.659,1.048,1.024a11.987,11.987,0,0,1,.66,5.183c.013-.153-.934-.875-1.068-1C1.552,6.058.64,5.4.66,5.183" transform="translate(301.831 82.916)" fill="#ffc764"/>
        <path id="Fill_514-6" data-name="Fill 514" d="M0,3.264,3.247,0C3.27-.024,5.37,2.019,5.363,2.028L2.116,5.292C2.093,5.316-.008,3.272,0,3.264" transform="translate(12.277 88.032)" fill="#6487fe"/>
        <path id="Fill_522-6" data-name="Fill 522" d="M.031,5.325A4.923,4.923,0,0,1,3.867,0c.157-.034.94.88,1.069,1s.895,1.057,1.047,1.024A4.922,4.922,0,0,0,2.147,7.353c-.026-.227-.89-.832-1.068-1C.872,6.151.065,5.62.031,5.325" transform="translate(256.723 74.341)" fill="#6487fe"/>
        <path id="Fill_532-6" data-name="Fill 532" d="M.577,0a.593.593,0,0,1,0,1.186A.593.593,0,0,1,.577,0" transform="translate(417.354 90.467)" fill="#ffc764"/>
        <path id="Fill_538-6" data-name="Fill 538" d="M1.287,0a1.324,1.324,0,0,1,0,2.646A1.324,1.324,0,0,1,1.287,0" transform="translate(74.184 91.035)" fill="#6487fe"/>
        <path id="Fill_548-6" data-name="Fill 548" d="M.769,0a.791.791,0,0,1,0,1.581A.791.791,0,0,1,.769,0" transform="translate(10 149.314)" fill="#ff7273"/>
        <path id="Fill_560-6" data-name="Fill 560" d="M.776,0a.8.8,0,0,1,0,1.6.8.8,0,0,1,0-1.6" transform="translate(345.264 113.62)" fill="#ff7273"/>
        <path id="Fill_566-6" data-name="Fill 566" d="M1.138,2.1l-.458-.12a.954.954,0,0,1,0-1.827l.458-.12A1.092,1.092,0,0,1,2.5,1.07,1.092,1.092,0,0,1,1.138,2.1" transform="translate(411.932 104.265)" fill="#ff7273"/>
        <path id="Fill_568-6" data-name="Fill 568" d="M1.065,0a1.1,1.1,0,0,1,0,2.189A1.1,1.1,0,0,1,1.065,0" transform="translate(45.649 84.775)" fill="#ff7273"/>
      </g>
      <g id="Group_15-4" data-name="Group 15" transform="translate(-8806 -15207.23)">
        <path id="Fill_418-4" data-name="Fill 418" d="M.741.545a.269.269,0,1,0-.329.19A.268.268,0,0,0,.741.545" transform="translate(141.996 204)" fill="#ffc764"/>
        <path id="Fill_488-4" data-name="Fill 488" d="M.006,2.028Q.947,4.959,1.89,7.892c-.126-.393,2.254-1.6,2.116-2.029L2.121,0C2.247.392-.133,1.6.006,2.028" transform="translate(45.531 176.065)" fill="#ff7273"/>
        <path id="Fill_490-7" data-name="Fill 490" d="M0,2.028V6.569c0-.184.917-.858,1.068-1,.177-.17,1.048-.772,1.048-1.025V0c0,.184-.916.858-1.068,1C.871,1.173,0,1.775,0,2.028" transform="translate(185.32 155.326)" fill="#ff7273"/>
        <path id="Fill_494-7" data-name="Fill 494" d="M0,2.028A11.65,11.65,0,0,0,4.465,5.409c.1.042.965-.907,1.067-1A8.584,8.584,0,0,1,6.58,3.38,11.652,11.652,0,0,1,2.117,0C2.159.051-.068,1.943,0,2.028" transform="translate(348.133 142.287)" fill="#ff7273"/>
        <path id="Fill_500-4" data-name="Fill 500" d="M.006,2.028A14.35,14.35,0,0,1,.668,7.859c.02-.219.9-.839,1.069-1,.2-.192,1.022-.739,1.048-1.025A14.348,14.348,0,0,0,2.122,0C2.248.386-.133,1.6.006,2.028" transform="translate(263.067 198.805)" fill="#ff7273"/>
        <path id="Fill_502-7" data-name="Fill 502" d="M.167,2.028A9.244,9.244,0,0,0,.674,7.249C.544,6.921,2.935,5.585,2.789,5.22A9.25,9.25,0,0,1,2.283,0c-.048.255-.87.814-1.068,1C.988,1.221.227,1.708.167,2.028" transform="translate(33.529 98.228)" fill="#ffc764"/>
        <path id="Fill_506-7" data-name="Fill 506" d="M0,2.028A9.292,9.292,0,0,0,1.978,7.879c-.055-.07,2.2-1.923,2.116-2.028A9.308,9.308,0,0,1,2.115,0c0,.187-.915.857-1.067,1C.869,1.174,0,1.772,0,2.028" transform="translate(422.528 100.174)" fill="#ffc764"/>
        <path id="Fill_508-7" data-name="Fill 508" d="M.66,2.028A11.987,11.987,0,0,1,0,7.211c.112-.312.821-.768,1.068-1,.273-.261.917-.659,1.048-1.024A11.987,11.987,0,0,0,2.776,0c.013.153-.934.875-1.068,1C1.552,1.153.64,1.808.66,2.028" transform="translate(291.831 142.999)" fill="#ffc764"/>
        <path id="Fill_514-7" data-name="Fill 514" d="M0,2.028,3.247,5.292c.023.024,2.123-2.019,2.116-2.028L2.116,0C2.093-.024-.008,2.019,0,2.028" transform="translate(2.277 139.802)" fill="#6487fe"/>
        <path id="Fill_516-4" data-name="Fill 516" d="M0,2.028A9.222,9.222,0,0,0,2.739,7.18c.039.037,2.108-2.035,2.116-2.029A9.233,9.233,0,0,1,2.115,0c.022.125-.948.888-1.067,1C.909,1.136-.032,1.838,0,2.028" transform="translate(409.384 173.509)" fill="#6487fe"/>
        <path id="Fill_518-4" data-name="Fill 518" d="M2.778,5.71A9.255,9.255,0,0,0,6.174.959C6.19.908,3.393.01,3.4,0A9.248,9.248,0,0,1,0,4.75a6.919,6.919,0,0,1,1.384.494c.182.062,1.238.58,1.394.466" transform="translate(137.887 180.996)" fill="#6487fe"/>
        <path id="Fill_522-7" data-name="Fill 522" d="M.031,2.028A4.923,4.923,0,0,0,3.867,7.352c.157.034.94-.88,1.069-1s.895-1.057,1.047-1.024A4.922,4.922,0,0,1,2.147,0c-.026.227-.89.832-1.068,1C.872,1.2.065,1.733.031,2.028" transform="translate(246.723 151.433)" fill="#6487fe"/>
        <path id="Fill_532-7" data-name="Fill 532" d="M.577,1.186A.593.593,0,0,0,.577,0a.593.593,0,0,0,0,1.186" transform="translate(407.354 141.473)" fill="#ffc764"/>
        <path id="Fill_534-4" data-name="Fill 534" d="M1.6,3.285A1.643,1.643,0,0,0,1.6,0a1.643,1.643,0,0,0,0,3.285" transform="translate(345.553 194.926)" fill="#ffc764"/>
        <path id="Fill_536-4" data-name="Fill 536" d="M2.153.188A2.7,2.7,0,0,0,1.357,0,1.557,1.557,0,0,0,.35.449a1.181,1.181,0,0,0,0,1.679,1.557,1.557,0,0,0,1.007.449,2.674,2.674,0,0,0,.8-.188,1.148,1.148,0,0,0,0-2.2" transform="translate(213.94 186.845)" fill="#ffc764"/>
        <path id="Fill_538-7" data-name="Fill 538" d="M1.287,2.646A1.324,1.324,0,0,0,1.287,0a1.324,1.324,0,0,0,0,2.646" transform="translate(64.184 139.445)" fill="#6487fe"/>
        <path id="Fill_544-4" data-name="Fill 544" d="M.755,1.551A.776.776,0,0,0,.755,0a.776.776,0,0,0,0,1.551" transform="translate(311.759 180.869)" fill="#6487fe"/>
        <path id="Fill_546-4" data-name="Fill 546" d="M.887,1.826A.913.913,0,0,0,.887,0a.913.913,0,0,0,0,1.826" transform="translate(169.152 201.495)" fill="#6487fe"/>
        <path id="Fill_548-7" data-name="Fill 548" d="M.769,1.581A.791.791,0,0,0,.769,0a.791.791,0,0,0,0,1.581" transform="translate(0 82.231)" fill="#ff7273"/>
        <path id="Fill_556-4" data-name="Fill 556" d="M.481.989A.5.5,0,0,0,.481,0a.494.494,0,0,0,0,.989" transform="translate(95.053 198.02)" fill="#ff7273"/>
        <path id="Fill_558-4" data-name="Fill 558" d="M1.036.014l-.625.1a.573.573,0,0,0,0,1.1l.625.1a.671.671,0,1,0,0-1.305" transform="translate(8.701 212.771)" fill="#ff7273"/>
        <path id="Fill_560-7" data-name="Fill 560" d="M.776,1.6a.8.8,0,0,0,0-1.6.8.8,0,0,0,0,1.6" transform="translate(335.264 117.909)" fill="#ff7273"/>
        <path id="Fill_562-4" data-name="Fill 562" d="M.673,1.384A.692.692,0,0,0,.673,0a.692.692,0,0,0,0,1.384" transform="translate(443.857 168.625)" fill="#ff7273"/>
        <path id="Fill_564-4" data-name="Fill 564" d="M.755,1.551A.776.776,0,0,0,.755,0a.776.776,0,0,0,0,1.551" transform="translate(387.57 197.739)" fill="#ff7273"/>
        <path id="Fill_566-7" data-name="Fill 566" d="M1.138.036.681.156a.954.954,0,0,0,0,1.827l.458.12A1.092,1.092,0,0,0,2.5,1.069,1.092,1.092,0,0,0,1.138.036" transform="translate(401.932 126.721)" fill="#ff7273"/>
        <path id="Fill_568-7" data-name="Fill 568" d="M1.065,2.189A1.1,1.1,0,0,0,1.065,0a1.1,1.1,0,0,0,0,2.189" transform="translate(35.649 146.162)" fill="#ff7273"/>
        <path id="Fill_579-4" data-name="Fill 579" d="M.481.857A.38.38,0,0,0,.481.1a.38.38,0,0,0,0,.761" transform="translate(384.25 166.244)" fill="#ffc764"/>
        <path id="Fill_581-4" data-name="Fill 581" d="M.562,1.156A.578.578,0,0,0,.562,0a.578.578,0,0,0,0,1.156" transform="translate(14.585 177.822)" fill="#ffc764"/>
        <path id="Fill_490-8" data-name="Fill 490" d="M0,4.541V0C0,.184.917.858,1.068,1c.177.17,1.048.772,1.048,1.025V6.569c0-.184-.916-.858-1.068-1C.871,5.4,0,4.794,0,4.541" transform="translate(195.32 71.23)" fill="#ff7273"/>
        <path id="Fill_494-8" data-name="Fill 494" d="M0,3.382A11.65,11.65,0,0,1,4.465,0c.1-.042.965.907,1.067,1A8.584,8.584,0,0,0,6.58,2.03,11.652,11.652,0,0,0,2.117,5.41C2.159,5.36-.068,3.467,0,3.382" transform="translate(358.133 85.429)" fill="#ff7273"/>
        <path id="Fill_502-8" data-name="Fill 502" d="M.167,5.221A9.244,9.244,0,0,1,.674,0C.544.327,2.935,1.663,2.789,2.029a9.25,9.25,0,0,0-.507,5.22c-.048-.255-.87-.814-1.068-1C.988,6.028.227,5.541.167,5.221" transform="translate(43.528 127.649)" fill="#ffc764"/>
        <path id="Fill_506-8" data-name="Fill 506" d="M0,5.851A9.292,9.292,0,0,1,1.978,0c-.055.07,2.2,1.923,2.116,2.028A9.308,9.308,0,0,0,2.115,7.879c0-.187-.915-.857-1.067-1C.869,6.7,0,6.106,0,5.851" transform="translate(432.528 125.074)" fill="#ffc764"/>
        <path id="Fill_508-8" data-name="Fill 508" d="M.66,5.183A11.987,11.987,0,0,0,0,0C.112.312.821.768,1.068,1c.273.261.917.659,1.048,1.024a11.987,11.987,0,0,1,.66,5.183c.013-.153-.934-.875-1.068-1C1.552,6.058.64,5.4.66,5.183" transform="translate(301.831 82.916)" fill="#ffc764"/>
        <path id="Fill_514-8" data-name="Fill 514" d="M0,3.264,3.247,0C3.27-.024,5.37,2.019,5.363,2.028L2.116,5.292C2.093,5.316-.008,3.272,0,3.264" transform="translate(12.277 88.032)" fill="#6487fe"/>
        <path id="Fill_522-8" data-name="Fill 522" d="M.031,5.325A4.923,4.923,0,0,1,3.867,0c.157-.034.94.88,1.069,1s.895,1.057,1.047,1.024A4.922,4.922,0,0,0,2.147,7.353c-.026-.227-.89-.832-1.068-1C.872,6.151.065,5.62.031,5.325" transform="translate(256.723 74.341)" fill="#6487fe"/>
        <path id="Fill_532-8" data-name="Fill 532" d="M.577,0a.593.593,0,0,1,0,1.186A.593.593,0,0,1,.577,0" transform="translate(417.354 90.467)" fill="#ffc764"/>
        <path id="Fill_538-8" data-name="Fill 538" d="M1.287,0a1.324,1.324,0,0,1,0,2.646A1.324,1.324,0,0,1,1.287,0" transform="translate(74.184 91.035)" fill="#6487fe"/>
        <path id="Fill_548-8" data-name="Fill 548" d="M.769,0a.791.791,0,0,1,0,1.581A.791.791,0,0,1,.769,0" transform="translate(10 149.314)" fill="#ff7273"/>
        <path id="Fill_560-8" data-name="Fill 560" d="M.776,0a.8.8,0,0,1,0,1.6.8.8,0,0,1,0-1.6" transform="translate(345.264 113.62)" fill="#ff7273"/>
        <path id="Fill_566-8" data-name="Fill 566" d="M1.138,2.1l-.458-.12a.954.954,0,0,1,0-1.827l.458-.12A1.092,1.092,0,0,1,2.5,1.07,1.092,1.092,0,0,1,1.138,2.1" transform="translate(411.932 104.265)" fill="#ff7273"/>
        <path id="Fill_568-8" data-name="Fill 568" d="M1.065,0a1.1,1.1,0,0,1,0,2.189A1.1,1.1,0,0,1,1.065,0" transform="translate(45.649 84.775)" fill="#ff7273"/>
      </g>
      <g id="Group_15-5" data-name="Group 15" transform="translate(-7864 -15207.23)">
        <path id="Fill_418-5" data-name="Fill 418" d="M.741.545a.269.269,0,1,0-.329.19A.268.268,0,0,0,.741.545" transform="translate(141.996 204)" fill="#ffc764"/>
        <path id="Fill_488-5" data-name="Fill 488" d="M.006,2.028Q.947,4.959,1.89,7.892c-.126-.393,2.254-1.6,2.116-2.029L2.121,0C2.247.392-.133,1.6.006,2.028" transform="translate(45.531 176.065)" fill="#ff7273"/>
        <path id="Fill_490-9" data-name="Fill 490" d="M0,2.028V6.569c0-.184.917-.858,1.068-1,.177-.17,1.048-.772,1.048-1.025V0c0,.184-.916.858-1.068,1C.871,1.173,0,1.775,0,2.028" transform="translate(185.32 155.326)" fill="#ff7273"/>
        <path id="Fill_494-9" data-name="Fill 494" d="M0,2.028A11.65,11.65,0,0,0,4.465,5.409c.1.042.965-.907,1.067-1A8.584,8.584,0,0,1,6.58,3.38,11.652,11.652,0,0,1,2.117,0C2.159.051-.068,1.943,0,2.028" transform="translate(348.133 142.287)" fill="#ff7273"/>
        <path id="Fill_500-5" data-name="Fill 500" d="M.006,2.028A14.35,14.35,0,0,1,.668,7.859c.02-.219.9-.839,1.069-1,.2-.192,1.022-.739,1.048-1.025A14.348,14.348,0,0,0,2.122,0C2.248.386-.133,1.6.006,2.028" transform="translate(263.067 198.805)" fill="#ff7273"/>
        <path id="Fill_502-9" data-name="Fill 502" d="M.167,2.028A9.244,9.244,0,0,0,.674,7.249C.544,6.921,2.935,5.585,2.789,5.22A9.25,9.25,0,0,1,2.283,0c-.048.255-.87.814-1.068,1C.988,1.221.227,1.708.167,2.028" transform="translate(33.529 98.228)" fill="#ffc764"/>
        <path id="Fill_506-9" data-name="Fill 506" d="M0,2.028A9.292,9.292,0,0,0,1.978,7.879c-.055-.07,2.2-1.923,2.116-2.028A9.308,9.308,0,0,1,2.115,0c0,.187-.915.857-1.067,1C.869,1.174,0,1.772,0,2.028" transform="translate(422.528 100.174)" fill="#ffc764"/>
        <path id="Fill_508-9" data-name="Fill 508" d="M.66,2.028A11.987,11.987,0,0,1,0,7.211c.112-.312.821-.768,1.068-1,.273-.261.917-.659,1.048-1.024A11.987,11.987,0,0,0,2.776,0c.013.153-.934.875-1.068,1C1.552,1.153.64,1.808.66,2.028" transform="translate(291.831 142.999)" fill="#ffc764"/>
        <path id="Fill_514-9" data-name="Fill 514" d="M0,2.028,3.247,5.292c.023.024,2.123-2.019,2.116-2.028L2.116,0C2.093-.024-.008,2.019,0,2.028" transform="translate(2.277 139.802)" fill="#6487fe"/>
        <path id="Fill_516-5" data-name="Fill 516" d="M0,2.028A9.222,9.222,0,0,0,2.739,7.18c.039.037,2.108-2.035,2.116-2.029A9.233,9.233,0,0,1,2.115,0c.022.125-.948.888-1.067,1C.909,1.136-.032,1.838,0,2.028" transform="translate(409.384 173.509)" fill="#6487fe"/>
        <path id="Fill_518-5" data-name="Fill 518" d="M2.778,5.71A9.255,9.255,0,0,0,6.174.959C6.19.908,3.393.01,3.4,0A9.248,9.248,0,0,1,0,4.75a6.919,6.919,0,0,1,1.384.494c.182.062,1.238.58,1.394.466" transform="translate(137.887 180.996)" fill="#6487fe"/>
        <path id="Fill_522-9" data-name="Fill 522" d="M.031,2.028A4.923,4.923,0,0,0,3.867,7.352c.157.034.94-.88,1.069-1s.895-1.057,1.047-1.024A4.922,4.922,0,0,1,2.147,0c-.026.227-.89.832-1.068,1C.872,1.2.065,1.733.031,2.028" transform="translate(246.723 151.433)" fill="#6487fe"/>
        <path id="Fill_532-9" data-name="Fill 532" d="M.577,1.186A.593.593,0,0,0,.577,0a.593.593,0,0,0,0,1.186" transform="translate(407.354 141.473)" fill="#ffc764"/>
        <path id="Fill_534-5" data-name="Fill 534" d="M1.6,3.285A1.643,1.643,0,0,0,1.6,0a1.643,1.643,0,0,0,0,3.285" transform="translate(345.553 194.926)" fill="#ffc764"/>
        <path id="Fill_536-5" data-name="Fill 536" d="M2.153.188A2.7,2.7,0,0,0,1.357,0,1.557,1.557,0,0,0,.35.449a1.181,1.181,0,0,0,0,1.679,1.557,1.557,0,0,0,1.007.449,2.674,2.674,0,0,0,.8-.188,1.148,1.148,0,0,0,0-2.2" transform="translate(213.94 186.845)" fill="#ffc764"/>
        <path id="Fill_538-9" data-name="Fill 538" d="M1.287,2.646A1.324,1.324,0,0,0,1.287,0a1.324,1.324,0,0,0,0,2.646" transform="translate(64.184 139.445)" fill="#6487fe"/>
        <path id="Fill_544-5" data-name="Fill 544" d="M.755,1.551A.776.776,0,0,0,.755,0a.776.776,0,0,0,0,1.551" transform="translate(311.759 180.869)" fill="#6487fe"/>
        <path id="Fill_546-5" data-name="Fill 546" d="M.887,1.826A.913.913,0,0,0,.887,0a.913.913,0,0,0,0,1.826" transform="translate(169.152 201.495)" fill="#6487fe"/>
        <path id="Fill_548-9" data-name="Fill 548" d="M.769,1.581A.791.791,0,0,0,.769,0a.791.791,0,0,0,0,1.581" transform="translate(0 82.231)" fill="#ff7273"/>
        <path id="Fill_556-5" data-name="Fill 556" d="M.481.989A.5.5,0,0,0,.481,0a.494.494,0,0,0,0,.989" transform="translate(95.053 198.02)" fill="#ff7273"/>
        <path id="Fill_558-5" data-name="Fill 558" d="M1.036.014l-.625.1a.573.573,0,0,0,0,1.1l.625.1a.671.671,0,1,0,0-1.305" transform="translate(8.701 212.771)" fill="#ff7273"/>
        <path id="Fill_560-9" data-name="Fill 560" d="M.776,1.6a.8.8,0,0,0,0-1.6.8.8,0,0,0,0,1.6" transform="translate(335.264 117.909)" fill="#ff7273"/>
        <path id="Fill_562-5" data-name="Fill 562" d="M.673,1.384A.692.692,0,0,0,.673,0a.692.692,0,0,0,0,1.384" transform="translate(443.857 168.625)" fill="#ff7273"/>
        <path id="Fill_564-5" data-name="Fill 564" d="M.755,1.551A.776.776,0,0,0,.755,0a.776.776,0,0,0,0,1.551" transform="translate(387.57 197.739)" fill="#ff7273"/>
        <path id="Fill_566-9" data-name="Fill 566" d="M1.138.036.681.156a.954.954,0,0,0,0,1.827l.458.12A1.092,1.092,0,0,0,2.5,1.069,1.092,1.092,0,0,0,1.138.036" transform="translate(401.932 126.721)" fill="#ff7273"/>
        <path id="Fill_568-9" data-name="Fill 568" d="M1.065,2.189A1.1,1.1,0,0,0,1.065,0a1.1,1.1,0,0,0,0,2.189" transform="translate(35.649 146.162)" fill="#ff7273"/>
        <path id="Fill_579-5" data-name="Fill 579" d="M.481.857A.38.38,0,0,0,.481.1a.38.38,0,0,0,0,.761" transform="translate(384.25 166.244)" fill="#ffc764"/>
        <path id="Fill_581-5" data-name="Fill 581" d="M.562,1.156A.578.578,0,0,0,.562,0a.578.578,0,0,0,0,1.156" transform="translate(14.585 177.822)" fill="#ffc764"/>
        <path id="Fill_490-10" data-name="Fill 490" d="M0,4.541V0C0,.184.917.858,1.068,1c.177.17,1.048.772,1.048,1.025V6.569c0-.184-.916-.858-1.068-1C.871,5.4,0,4.794,0,4.541" transform="translate(195.32 71.23)" fill="#ff7273"/>
        <path id="Fill_494-10" data-name="Fill 494" d="M0,3.382A11.65,11.65,0,0,1,4.465,0c.1-.042.965.907,1.067,1A8.584,8.584,0,0,0,6.58,2.03,11.652,11.652,0,0,0,2.117,5.41C2.159,5.36-.068,3.467,0,3.382" transform="translate(358.133 85.429)" fill="#ff7273"/>
        <path id="Fill_502-10" data-name="Fill 502" d="M.167,5.221A9.244,9.244,0,0,1,.674,0C.544.327,2.935,1.663,2.789,2.029a9.25,9.25,0,0,0-.507,5.22c-.048-.255-.87-.814-1.068-1C.988,6.028.227,5.541.167,5.221" transform="translate(43.528 127.649)" fill="#ffc764"/>
        <path id="Fill_506-10" data-name="Fill 506" d="M0,5.851A9.292,9.292,0,0,1,1.978,0c-.055.07,2.2,1.923,2.116,2.028A9.308,9.308,0,0,0,2.115,7.879c0-.187-.915-.857-1.067-1C.869,6.7,0,6.106,0,5.851" transform="translate(432.528 125.074)" fill="#ffc764"/>
        <path id="Fill_508-10" data-name="Fill 508" d="M.66,5.183A11.987,11.987,0,0,0,0,0C.112.312.821.768,1.068,1c.273.261.917.659,1.048,1.024a11.987,11.987,0,0,1,.66,5.183c.013-.153-.934-.875-1.068-1C1.552,6.058.64,5.4.66,5.183" transform="translate(301.831 82.916)" fill="#ffc764"/>
        <path id="Fill_514-10" data-name="Fill 514" d="M0,3.264,3.247,0C3.27-.024,5.37,2.019,5.363,2.028L2.116,5.292C2.093,5.316-.008,3.272,0,3.264" transform="translate(12.277 88.032)" fill="#6487fe"/>
        <path id="Fill_522-10" data-name="Fill 522" d="M.031,5.325A4.923,4.923,0,0,1,3.867,0c.157-.034.94.88,1.069,1s.895,1.057,1.047,1.024A4.922,4.922,0,0,0,2.147,7.353c-.026-.227-.89-.832-1.068-1C.872,6.151.065,5.62.031,5.325" transform="translate(256.723 74.341)" fill="#6487fe"/>
        <path id="Fill_532-10" data-name="Fill 532" d="M.577,0a.593.593,0,0,1,0,1.186A.593.593,0,0,1,.577,0" transform="translate(417.354 90.467)" fill="#ffc764"/>
        <path id="Fill_538-10" data-name="Fill 538" d="M1.287,0a1.324,1.324,0,0,1,0,2.646A1.324,1.324,0,0,1,1.287,0" transform="translate(74.184 91.035)" fill="#6487fe"/>
        <path id="Fill_548-10" data-name="Fill 548" d="M.769,0a.791.791,0,0,1,0,1.581A.791.791,0,0,1,.769,0" transform="translate(10 149.314)" fill="#ff7273"/>
        <path id="Fill_560-10" data-name="Fill 560" d="M.776,0a.8.8,0,0,1,0,1.6.8.8,0,0,1,0-1.6" transform="translate(345.264 113.62)" fill="#ff7273"/>
        <path id="Fill_566-10" data-name="Fill 566" d="M1.138,2.1l-.458-.12a.954.954,0,0,1,0-1.827l.458-.12A1.092,1.092,0,0,1,2.5,1.07,1.092,1.092,0,0,1,1.138,2.1" transform="translate(411.932 104.265)" fill="#ff7273"/>
        <path id="Fill_568-10" data-name="Fill 568" d="M1.065,0a1.1,1.1,0,0,1,0,2.189A1.1,1.1,0,0,1,1.065,0" transform="translate(45.649 84.775)" fill="#ff7273"/>
      </g>
      <g id="Group_15-6" data-name="Group 15" transform="translate(-9057 -15207.23)">
        <path id="Fill_418-6" data-name="Fill 418" d="M.741.545a.269.269,0,1,0-.329.19A.268.268,0,0,0,.741.545" transform="translate(141.996 204)" fill="#ffc764"/>
        <path id="Fill_488-6" data-name="Fill 488" d="M.006,2.028Q.947,4.959,1.89,7.892c-.126-.393,2.254-1.6,2.116-2.029L2.121,0C2.247.392-.133,1.6.006,2.028" transform="translate(45.531 176.065)" fill="#ff7273"/>
        <path id="Fill_490-11" data-name="Fill 490" d="M0,2.028V6.569c0-.184.917-.858,1.068-1,.177-.17,1.048-.772,1.048-1.025V0c0,.184-.916.858-1.068,1C.871,1.173,0,1.775,0,2.028" transform="translate(185.32 155.326)" fill="#ff7273"/>
        <path id="Fill_494-11" data-name="Fill 494" d="M0,2.028A11.65,11.65,0,0,0,4.465,5.409c.1.042.965-.907,1.067-1A8.584,8.584,0,0,1,6.58,3.38,11.652,11.652,0,0,1,2.117,0C2.159.051-.068,1.943,0,2.028" transform="translate(348.133 142.287)" fill="#ff7273"/>
        <path id="Fill_500-6" data-name="Fill 500" d="M.006,2.028A14.35,14.35,0,0,1,.668,7.859c.02-.219.9-.839,1.069-1,.2-.192,1.022-.739,1.048-1.025A14.348,14.348,0,0,0,2.122,0C2.248.386-.133,1.6.006,2.028" transform="translate(263.067 198.805)" fill="#ff7273"/>
        <path id="Fill_502-11" data-name="Fill 502" d="M.167,2.028A9.244,9.244,0,0,0,.674,7.249C.544,6.921,2.935,5.585,2.789,5.22A9.25,9.25,0,0,1,2.283,0c-.048.255-.87.814-1.068,1C.988,1.221.227,1.708.167,2.028" transform="translate(33.529 98.228)" fill="#ffc764"/>
        <path id="Fill_506-11" data-name="Fill 506" d="M0,2.028A9.292,9.292,0,0,0,1.978,7.879c-.055-.07,2.2-1.923,2.116-2.028A9.308,9.308,0,0,1,2.115,0c0,.187-.915.857-1.067,1C.869,1.174,0,1.772,0,2.028" transform="translate(422.528 100.174)" fill="#ffc764"/>
        <path id="Fill_508-11" data-name="Fill 508" d="M.66,2.028A11.987,11.987,0,0,1,0,7.211c.112-.312.821-.768,1.068-1,.273-.261.917-.659,1.048-1.024A11.987,11.987,0,0,0,2.776,0c.013.153-.934.875-1.068,1C1.552,1.153.64,1.808.66,2.028" transform="translate(291.831 142.999)" fill="#ffc764"/>
        <path id="Fill_514-11" data-name="Fill 514" d="M0,2.028,3.247,5.292c.023.024,2.123-2.019,2.116-2.028L2.116,0C2.093-.024-.008,2.019,0,2.028" transform="translate(2.277 139.802)" fill="#6487fe"/>
        <path id="Fill_516-6" data-name="Fill 516" d="M0,2.028A9.222,9.222,0,0,0,2.739,7.18c.039.037,2.108-2.035,2.116-2.029A9.233,9.233,0,0,1,2.115,0c.022.125-.948.888-1.067,1C.909,1.136-.032,1.838,0,2.028" transform="translate(409.384 173.509)" fill="#6487fe"/>
        <path id="Fill_518-6" data-name="Fill 518" d="M2.778,5.71A9.255,9.255,0,0,0,6.174.959C6.19.908,3.393.01,3.4,0A9.248,9.248,0,0,1,0,4.75a6.919,6.919,0,0,1,1.384.494c.182.062,1.238.58,1.394.466" transform="translate(137.887 180.996)" fill="#6487fe"/>
        <path id="Fill_522-11" data-name="Fill 522" d="M.031,2.028A4.923,4.923,0,0,0,3.867,7.352c.157.034.94-.88,1.069-1s.895-1.057,1.047-1.024A4.922,4.922,0,0,1,2.147,0c-.026.227-.89.832-1.068,1C.872,1.2.065,1.733.031,2.028" transform="translate(246.723 151.433)" fill="#6487fe"/>
        <path id="Fill_532-11" data-name="Fill 532" d="M.577,1.186A.593.593,0,0,0,.577,0a.593.593,0,0,0,0,1.186" transform="translate(407.354 141.473)" fill="#ffc764"/>
        <path id="Fill_534-6" data-name="Fill 534" d="M1.6,3.285A1.643,1.643,0,0,0,1.6,0a1.643,1.643,0,0,0,0,3.285" transform="translate(345.553 194.926)" fill="#ffc764"/>
        <path id="Fill_536-6" data-name="Fill 536" d="M2.153.188A2.7,2.7,0,0,0,1.357,0,1.557,1.557,0,0,0,.35.449a1.181,1.181,0,0,0,0,1.679,1.557,1.557,0,0,0,1.007.449,2.674,2.674,0,0,0,.8-.188,1.148,1.148,0,0,0,0-2.2" transform="translate(213.94 186.845)" fill="#ffc764"/>
        <path id="Fill_538-11" data-name="Fill 538" d="M1.287,2.646A1.324,1.324,0,0,0,1.287,0a1.324,1.324,0,0,0,0,2.646" transform="translate(64.184 139.445)" fill="#6487fe"/>
        <path id="Fill_544-6" data-name="Fill 544" d="M.755,1.551A.776.776,0,0,0,.755,0a.776.776,0,0,0,0,1.551" transform="translate(311.759 180.869)" fill="#6487fe"/>
        <path id="Fill_546-6" data-name="Fill 546" d="M.887,1.826A.913.913,0,0,0,.887,0a.913.913,0,0,0,0,1.826" transform="translate(169.152 201.495)" fill="#6487fe"/>
        <path id="Fill_548-11" data-name="Fill 548" d="M.769,1.581A.791.791,0,0,0,.769,0a.791.791,0,0,0,0,1.581" transform="translate(0 82.231)" fill="#ff7273"/>
        <path id="Fill_556-6" data-name="Fill 556" d="M.481.989A.5.5,0,0,0,.481,0a.494.494,0,0,0,0,.989" transform="translate(95.053 198.02)" fill="#ff7273"/>
        <path id="Fill_558-6" data-name="Fill 558" d="M1.036.014l-.625.1a.573.573,0,0,0,0,1.1l.625.1a.671.671,0,1,0,0-1.305" transform="translate(8.701 212.771)" fill="#ff7273"/>
        <path id="Fill_560-11" data-name="Fill 560" d="M.776,1.6a.8.8,0,0,0,0-1.6.8.8,0,0,0,0,1.6" transform="translate(335.264 117.909)" fill="#ff7273"/>
        <path id="Fill_562-6" data-name="Fill 562" d="M.673,1.384A.692.692,0,0,0,.673,0a.692.692,0,0,0,0,1.384" transform="translate(443.857 168.625)" fill="#ff7273"/>
        <path id="Fill_564-6" data-name="Fill 564" d="M.755,1.551A.776.776,0,0,0,.755,0a.776.776,0,0,0,0,1.551" transform="translate(387.57 197.739)" fill="#ff7273"/>
        <path id="Fill_566-11" data-name="Fill 566" d="M1.138.036.681.156a.954.954,0,0,0,0,1.827l.458.12A1.092,1.092,0,0,0,2.5,1.069,1.092,1.092,0,0,0,1.138.036" transform="translate(401.932 126.721)" fill="#ff7273"/>
        <path id="Fill_568-11" data-name="Fill 568" d="M1.065,2.189A1.1,1.1,0,0,0,1.065,0a1.1,1.1,0,0,0,0,2.189" transform="translate(35.649 146.162)" fill="#ff7273"/>
        <path id="Fill_579-6" data-name="Fill 579" d="M.481.857A.38.38,0,0,0,.481.1a.38.38,0,0,0,0,.761" transform="translate(384.25 166.244)" fill="#ffc764"/>
        <path id="Fill_581-6" data-name="Fill 581" d="M.562,1.156A.578.578,0,0,0,.562,0a.578.578,0,0,0,0,1.156" transform="translate(14.585 177.822)" fill="#ffc764"/>
        <path id="Fill_490-12" data-name="Fill 490" d="M0,4.541V0C0,.184.917.858,1.068,1c.177.17,1.048.772,1.048,1.025V6.569c0-.184-.916-.858-1.068-1C.871,5.4,0,4.794,0,4.541" transform="translate(195.32 71.23)" fill="#ff7273"/>
        <path id="Fill_494-12" data-name="Fill 494" d="M0,3.382A11.65,11.65,0,0,1,4.465,0c.1-.042.965.907,1.067,1A8.584,8.584,0,0,0,6.58,2.03,11.652,11.652,0,0,0,2.117,5.41C2.159,5.36-.068,3.467,0,3.382" transform="translate(358.133 85.429)" fill="#ff7273"/>
        <path id="Fill_502-12" data-name="Fill 502" d="M.167,5.221A9.244,9.244,0,0,1,.674,0C.544.327,2.935,1.663,2.789,2.029a9.25,9.25,0,0,0-.507,5.22c-.048-.255-.87-.814-1.068-1C.988,6.028.227,5.541.167,5.221" transform="translate(43.528 127.649)" fill="#ffc764"/>
        <path id="Fill_506-12" data-name="Fill 506" d="M0,5.851A9.292,9.292,0,0,1,1.978,0c-.055.07,2.2,1.923,2.116,2.028A9.308,9.308,0,0,0,2.115,7.879c0-.187-.915-.857-1.067-1C.869,6.7,0,6.106,0,5.851" transform="translate(432.528 125.074)" fill="#ffc764"/>
        <path id="Fill_508-12" data-name="Fill 508" d="M.66,5.183A11.987,11.987,0,0,0,0,0C.112.312.821.768,1.068,1c.273.261.917.659,1.048,1.024a11.987,11.987,0,0,1,.66,5.183c.013-.153-.934-.875-1.068-1C1.552,6.058.64,5.4.66,5.183" transform="translate(301.831 82.916)" fill="#ffc764"/>
        <path id="Fill_514-12" data-name="Fill 514" d="M0,3.264,3.247,0C3.27-.024,5.37,2.019,5.363,2.028L2.116,5.292C2.093,5.316-.008,3.272,0,3.264" transform="translate(12.277 88.032)" fill="#6487fe"/>
        <path id="Fill_522-12" data-name="Fill 522" d="M.031,5.325A4.923,4.923,0,0,1,3.867,0c.157-.034.94.88,1.069,1s.895,1.057,1.047,1.024A4.922,4.922,0,0,0,2.147,7.353c-.026-.227-.89-.832-1.068-1C.872,6.151.065,5.62.031,5.325" transform="translate(256.723 74.341)" fill="#6487fe"/>
        <path id="Fill_532-12" data-name="Fill 532" d="M.577,0a.593.593,0,0,1,0,1.186A.593.593,0,0,1,.577,0" transform="translate(417.354 90.467)" fill="#ffc764"/>
        <path id="Fill_538-12" data-name="Fill 538" d="M1.287,0a1.324,1.324,0,0,1,0,2.646A1.324,1.324,0,0,1,1.287,0" transform="translate(74.184 91.035)" fill="#6487fe"/>
        <path id="Fill_548-12" data-name="Fill 548" d="M.769,0a.791.791,0,0,1,0,1.581A.791.791,0,0,1,.769,0" transform="translate(10 149.314)" fill="#ff7273"/>
        <path id="Fill_560-12" data-name="Fill 560" d="M.776,0a.8.8,0,0,1,0,1.6.8.8,0,0,1,0-1.6" transform="translate(345.264 113.62)" fill="#ff7273"/>
        <path id="Fill_566-12" data-name="Fill 566" d="M1.138,2.1l-.458-.12a.954.954,0,0,1,0-1.827l.458-.12A1.092,1.092,0,0,1,2.5,1.07,1.092,1.092,0,0,1,1.138,2.1" transform="translate(411.932 104.265)" fill="#ff7273"/>
        <path id="Fill_568-12" data-name="Fill 568" d="M1.065,0a1.1,1.1,0,0,1,0,2.189A1.1,1.1,0,0,1,1.065,0" transform="translate(45.649 84.775)" fill="#ff7273"/>
      </g>
      <g id="Group_15-7" data-name="Group 15" transform="translate(-9305.602 -15207.23)">
        <path id="Fill_418-7" data-name="Fill 418" d="M.741.545a.269.269,0,1,0-.329.19A.268.268,0,0,0,.741.545" transform="translate(141.996 204)" fill="#ffc764"/>
        <path id="Fill_488-7" data-name="Fill 488" d="M.006,2.028Q.947,4.959,1.89,7.892c-.126-.393,2.254-1.6,2.116-2.029L2.121,0C2.247.392-.133,1.6.006,2.028" transform="translate(45.531 176.065)" fill="#ff7273"/>
        <path id="Fill_490-13" data-name="Fill 490" d="M0,2.028V6.569c0-.184.917-.858,1.068-1,.177-.17,1.048-.772,1.048-1.025V0c0,.184-.916.858-1.068,1C.871,1.173,0,1.775,0,2.028" transform="translate(185.32 155.326)" fill="#ff7273"/>
        <path id="Fill_494-13" data-name="Fill 494" d="M0,2.028A11.65,11.65,0,0,0,4.465,5.409c.1.042.965-.907,1.067-1A8.584,8.584,0,0,1,6.58,3.38,11.652,11.652,0,0,1,2.117,0C2.159.051-.068,1.943,0,2.028" transform="translate(348.133 142.287)" fill="#ff7273"/>
        <path id="Fill_500-7" data-name="Fill 500" d="M.006,2.028A14.35,14.35,0,0,1,.668,7.859c.02-.219.9-.839,1.069-1,.2-.192,1.022-.739,1.048-1.025A14.348,14.348,0,0,0,2.122,0C2.248.386-.133,1.6.006,2.028" transform="translate(263.067 198.805)" fill="#ff7273"/>
        <path id="Fill_502-13" data-name="Fill 502" d="M.167,2.028A9.244,9.244,0,0,0,.674,7.249C.544,6.921,2.935,5.585,2.789,5.22A9.25,9.25,0,0,1,2.283,0c-.048.255-.87.814-1.068,1C.988,1.221.227,1.708.167,2.028" transform="translate(33.529 98.228)" fill="#ffc764"/>
        <path id="Fill_506-13" data-name="Fill 506" d="M0,2.028A9.292,9.292,0,0,0,1.978,7.879c-.055-.07,2.2-1.923,2.116-2.028A9.308,9.308,0,0,1,2.115,0c0,.187-.915.857-1.067,1C.869,1.174,0,1.772,0,2.028" transform="translate(422.528 100.174)" fill="#ffc764"/>
        <path id="Fill_508-13" data-name="Fill 508" d="M.66,2.028A11.987,11.987,0,0,1,0,7.211c.112-.312.821-.768,1.068-1,.273-.261.917-.659,1.048-1.024A11.987,11.987,0,0,0,2.776,0c.013.153-.934.875-1.068,1C1.552,1.153.64,1.808.66,2.028" transform="translate(291.831 142.999)" fill="#ffc764"/>
        <path id="Fill_514-13" data-name="Fill 514" d="M0,2.028,3.247,5.292c.023.024,2.123-2.019,2.116-2.028L2.116,0C2.093-.024-.008,2.019,0,2.028" transform="translate(2.277 139.802)" fill="#6487fe"/>
        <path id="Fill_516-7" data-name="Fill 516" d="M0,2.028A9.222,9.222,0,0,0,2.739,7.18c.039.037,2.108-2.035,2.116-2.029A9.233,9.233,0,0,1,2.115,0c.022.125-.948.888-1.067,1C.909,1.136-.032,1.838,0,2.028" transform="translate(409.384 173.509)" fill="#6487fe"/>
        <path id="Fill_518-7" data-name="Fill 518" d="M2.778,5.71A9.255,9.255,0,0,0,6.174.959C6.19.908,3.393.01,3.4,0A9.248,9.248,0,0,1,0,4.75a6.919,6.919,0,0,1,1.384.494c.182.062,1.238.58,1.394.466" transform="translate(137.887 180.996)" fill="#6487fe"/>
        <path id="Fill_522-13" data-name="Fill 522" d="M.031,2.028A4.923,4.923,0,0,0,3.867,7.352c.157.034.94-.88,1.069-1s.895-1.057,1.047-1.024A4.922,4.922,0,0,1,2.147,0c-.026.227-.89.832-1.068,1C.872,1.2.065,1.733.031,2.028" transform="translate(246.723 151.433)" fill="#6487fe"/>
        <path id="Fill_532-13" data-name="Fill 532" d="M.577,1.186A.593.593,0,0,0,.577,0a.593.593,0,0,0,0,1.186" transform="translate(407.354 141.473)" fill="#ffc764"/>
        <path id="Fill_534-7" data-name="Fill 534" d="M1.6,3.285A1.643,1.643,0,0,0,1.6,0a1.643,1.643,0,0,0,0,3.285" transform="translate(345.553 194.926)" fill="#ffc764"/>
        <path id="Fill_536-7" data-name="Fill 536" d="M2.153.188A2.7,2.7,0,0,0,1.357,0,1.557,1.557,0,0,0,.35.449a1.181,1.181,0,0,0,0,1.679,1.557,1.557,0,0,0,1.007.449,2.674,2.674,0,0,0,.8-.188,1.148,1.148,0,0,0,0-2.2" transform="translate(213.94 186.845)" fill="#ffc764"/>
        <path id="Fill_538-13" data-name="Fill 538" d="M1.287,2.646A1.324,1.324,0,0,0,1.287,0a1.324,1.324,0,0,0,0,2.646" transform="translate(64.184 139.445)" fill="#6487fe"/>
        <path id="Fill_544-7" data-name="Fill 544" d="M.755,1.551A.776.776,0,0,0,.755,0a.776.776,0,0,0,0,1.551" transform="translate(311.759 180.869)" fill="#6487fe"/>
        <path id="Fill_546-7" data-name="Fill 546" d="M.887,1.826A.913.913,0,0,0,.887,0a.913.913,0,0,0,0,1.826" transform="translate(169.152 201.495)" fill="#6487fe"/>
        <path id="Fill_548-13" data-name="Fill 548" d="M.769,1.581A.791.791,0,0,0,.769,0a.791.791,0,0,0,0,1.581" transform="translate(0 82.231)" fill="#ff7273"/>
        <path id="Fill_556-7" data-name="Fill 556" d="M.481.989A.5.5,0,0,0,.481,0a.494.494,0,0,0,0,.989" transform="translate(95.053 198.02)" fill="#ff7273"/>
        <path id="Fill_558-7" data-name="Fill 558" d="M1.036.014l-.625.1a.573.573,0,0,0,0,1.1l.625.1a.671.671,0,1,0,0-1.305" transform="translate(8.701 212.771)" fill="#ff7273"/>
        <path id="Fill_560-13" data-name="Fill 560" d="M.776,1.6a.8.8,0,0,0,0-1.6.8.8,0,0,0,0,1.6" transform="translate(335.264 117.909)" fill="#ff7273"/>
        <path id="Fill_562-7" data-name="Fill 562" d="M.673,1.384A.692.692,0,0,0,.673,0a.692.692,0,0,0,0,1.384" transform="translate(443.857 168.625)" fill="#ff7273"/>
        <path id="Fill_564-7" data-name="Fill 564" d="M.755,1.551A.776.776,0,0,0,.755,0a.776.776,0,0,0,0,1.551" transform="translate(387.57 197.739)" fill="#ff7273"/>
        <path id="Fill_566-13" data-name="Fill 566" d="M1.138.036.681.156a.954.954,0,0,0,0,1.827l.458.12A1.092,1.092,0,0,0,2.5,1.069,1.092,1.092,0,0,0,1.138.036" transform="translate(401.932 126.721)" fill="#ff7273"/>
        <path id="Fill_568-13" data-name="Fill 568" d="M1.065,2.189A1.1,1.1,0,0,0,1.065,0a1.1,1.1,0,0,0,0,2.189" transform="translate(35.649 146.162)" fill="#ff7273"/>
        <path id="Fill_579-7" data-name="Fill 579" d="M.481.857A.38.38,0,0,0,.481.1a.38.38,0,0,0,0,.761" transform="translate(384.25 166.244)" fill="#ffc764"/>
        <path id="Fill_581-7" data-name="Fill 581" d="M.562,1.156A.578.578,0,0,0,.562,0a.578.578,0,0,0,0,1.156" transform="translate(14.585 177.822)" fill="#ffc764"/>
        <path id="Fill_490-14" data-name="Fill 490" d="M0,4.541V0C0,.184.917.858,1.068,1c.177.17,1.048.772,1.048,1.025V6.569c0-.184-.916-.858-1.068-1C.871,5.4,0,4.794,0,4.541" transform="translate(195.32 71.23)" fill="#ff7273"/>
        <path id="Fill_494-14" data-name="Fill 494" d="M0,3.382A11.65,11.65,0,0,1,4.465,0c.1-.042.965.907,1.067,1A8.584,8.584,0,0,0,6.58,2.03,11.652,11.652,0,0,0,2.117,5.41C2.159,5.36-.068,3.467,0,3.382" transform="translate(358.133 85.429)" fill="#ff7273"/>
        <path id="Fill_502-14" data-name="Fill 502" d="M.167,5.221A9.244,9.244,0,0,1,.674,0C.544.327,2.935,1.663,2.789,2.029a9.25,9.25,0,0,0-.507,5.22c-.048-.255-.87-.814-1.068-1C.988,6.028.227,5.541.167,5.221" transform="translate(43.528 127.649)" fill="#ffc764"/>
        <path id="Fill_506-14" data-name="Fill 506" d="M0,5.851A9.292,9.292,0,0,1,1.978,0c-.055.07,2.2,1.923,2.116,2.028A9.308,9.308,0,0,0,2.115,7.879c0-.187-.915-.857-1.067-1C.869,6.7,0,6.106,0,5.851" transform="translate(432.528 125.074)" fill="#ffc764"/>
        <path id="Fill_508-14" data-name="Fill 508" d="M.66,5.183A11.987,11.987,0,0,0,0,0C.112.312.821.768,1.068,1c.273.261.917.659,1.048,1.024a11.987,11.987,0,0,1,.66,5.183c.013-.153-.934-.875-1.068-1C1.552,6.058.64,5.4.66,5.183" transform="translate(301.831 82.916)" fill="#ffc764"/>
        <path id="Fill_514-14" data-name="Fill 514" d="M0,3.264,3.247,0C3.27-.024,5.37,2.019,5.363,2.028L2.116,5.292C2.093,5.316-.008,3.272,0,3.264" transform="translate(12.277 88.032)" fill="#6487fe"/>
        <path id="Fill_522-14" data-name="Fill 522" d="M.031,5.325A4.923,4.923,0,0,1,3.867,0c.157-.034.94.88,1.069,1s.895,1.057,1.047,1.024A4.922,4.922,0,0,0,2.147,7.353c-.026-.227-.89-.832-1.068-1C.872,6.151.065,5.62.031,5.325" transform="translate(256.723 74.341)" fill="#6487fe"/>
        <path id="Fill_532-14" data-name="Fill 532" d="M.577,0a.593.593,0,0,1,0,1.186A.593.593,0,0,1,.577,0" transform="translate(417.354 90.467)" fill="#ffc764"/>
        <path id="Fill_538-14" data-name="Fill 538" d="M1.287,0a1.324,1.324,0,0,1,0,2.646A1.324,1.324,0,0,1,1.287,0" transform="translate(74.184 91.035)" fill="#6487fe"/>
        <path id="Fill_548-14" data-name="Fill 548" d="M.769,0a.791.791,0,0,1,0,1.581A.791.791,0,0,1,.769,0" transform="translate(10 149.314)" fill="#ff7273"/>
        <path id="Fill_560-14" data-name="Fill 560" d="M.776,0a.8.8,0,0,1,0,1.6.8.8,0,0,1,0-1.6" transform="translate(345.264 113.62)" fill="#ff7273"/>
        <path id="Fill_566-14" data-name="Fill 566" d="M1.138,2.1l-.458-.12a.954.954,0,0,1,0-1.827l.458-.12A1.092,1.092,0,0,1,2.5,1.07,1.092,1.092,0,0,1,1.138,2.1" transform="translate(411.932 104.265)" fill="#ff7273"/>
        <path id="Fill_568-14" data-name="Fill 568" d="M1.065,0a1.1,1.1,0,0,1,0,2.189A1.1,1.1,0,0,1,1.065,0" transform="translate(45.649 84.775)" fill="#ff7273"/>
      </g>
    </g>
  </g>
</svg>
