<svg xmlns="http://www.w3.org/2000/svg" width="12.939" height="16.174" viewBox="0 0 12.939 16.174">
  <path id="password" d="M169.807,55.556a.809.809,0,0,0-.809.809V58.79a.809.809,0,1,0,1.617,0V56.364a.809.809,0,0,0-.809-.809Zm4.043-3.235V50.7a4.043,4.043,0,1,0-8.087,0v1.617a2.426,2.426,0,0,0-2.426,2.426v5.661a2.426,2.426,0,0,0,2.426,2.426h8.087a2.426,2.426,0,0,0,2.426-2.426V54.747a2.426,2.426,0,0,0-2.426-2.426Zm-6.47-1.617a2.426,2.426,0,0,1,4.852,0v1.617h-4.852Zm7.278,9.7a.809.809,0,0,1-.809.809h-8.087a.809.809,0,0,1-.809-.809V54.747a.809.809,0,0,1,.809-.809h8.087a.809.809,0,0,1,.809.809Z" transform="translate(-163.338 -46.66)" fill="#7b809e"/>
</svg>
