<svg id="share" xmlns="http://www.w3.org/2000/svg" width="17.335" height="18.911" viewBox="0 0 17.335 18.911">
  <path id="Path_17176" data-name="Path 17176" d="M312.287,5.91a2.955,2.955,0,1,1,2.955-2.955A2.958,2.958,0,0,1,312.287,5.91Zm0-4.728a1.773,1.773,0,1,0,1.773,1.773A1.775,1.775,0,0,0,312.287,1.182Zm0,0" transform="translate(-297.907)"/>
  <path id="Path_17177" data-name="Path 17177" d="M312.287,357.91a2.955,2.955,0,1,1,2.955-2.955A2.958,2.958,0,0,1,312.287,357.91Zm0-4.728a1.773,1.773,0,1,0,1.773,1.773A1.775,1.775,0,0,0,312.287,353.182Zm0,0" transform="translate(-297.907 -338.999)"/>
  <path id="Path_17178" data-name="Path 17178" d="M2.955,181.91a2.955,2.955,0,1,1,2.955-2.955A2.958,2.958,0,0,1,2.955,181.91Zm0-4.728a1.773,1.773,0,1,0,1.773,1.773A1.775,1.775,0,0,0,2.955,177.182Zm0,0" transform="translate(0 -169.499)"/>
  <path id="Path_17179" data-name="Path 17179" d="M120.281,100.91a.591.591,0,0,1-.293-1.1l7.311-4.168a.591.591,0,0,1,.585,1.027l-7.311,4.168a.592.592,0,0,1-.291.077Zm0,0" transform="translate(-115.268 -92.03)"/>
  <path id="Path_17180" data-name="Path 17180" d="M127.612,276.9a.586.586,0,0,1-.292-.078l-7.311-4.168a.591.591,0,0,1,.585-1.027l7.311,4.168a.591.591,0,0,1-.293,1.1Zm0,0" transform="translate(-115.289 -261.519)"/>
</svg>
