<svg xmlns="http://www.w3.org/2000/svg" width="24.4" height="30.031" viewBox="0 0 24.4 30.031">
  <g id="trash" transform="translate(-48)">
    <path id="Path_246" data-name="Path 246" d="M70.054,3.754H64.892V2.815A2.819,2.819,0,0,0,62.077,0H58.323a2.819,2.819,0,0,0-2.815,2.815v.938H50.346A2.349,2.349,0,0,0,48,6.1V9.385a.939.939,0,0,0,.938.938h.513l.811,17.026a2.812,2.812,0,0,0,2.812,2.681H67.326a2.812,2.812,0,0,0,2.812-2.681l.811-17.026h.513a.939.939,0,0,0,.938-.938V6.1A2.349,2.349,0,0,0,70.054,3.754ZM57.385,2.815a.94.94,0,0,1,.938-.938h3.754a.94.94,0,0,1,.938.938v.938H57.385ZM49.877,6.1a.47.47,0,0,1,.469-.469H70.054a.47.47,0,0,1,.469.469V8.446H49.877ZM68.263,27.26a.937.937,0,0,1-.937.894H53.074a.937.937,0,0,1-.937-.894L51.33,10.323H69.07Z" fill="#f14336"/>
    <path id="Path_247" data-name="Path 247" d="M240.938,222.077a.939.939,0,0,0,.938-.938v-12.2a.938.938,0,1,0-1.877,0v12.2A.938.938,0,0,0,240.938,222.077Z" transform="translate(-180.738 -195.8)" fill="#f14336"/>
    <path id="Path_248" data-name="Path 248" d="M320.938,222.077a.939.939,0,0,0,.938-.938v-12.2a.938.938,0,1,0-1.877,0v12.2A.938.938,0,0,0,320.938,222.077Z" transform="translate(-256.046 -195.8)" fill="#f14336"/>
    <path id="Path_249" data-name="Path 249" d="M160.938,222.077a.939.939,0,0,0,.938-.938v-12.2a.938.938,0,1,0-1.877,0v12.2A.938.938,0,0,0,160.938,222.077Z" transform="translate(-105.431 -195.8)" fill="#f14336"/>
  </g>
</svg>
