<svg xmlns="http://www.w3.org/2000/svg" width="87" height="87" viewBox="0 0 87 87">
  <g id="user_not" transform="translate(-1288 -368)">
    <g id="Group_17151" data-name="Group 17151">
      <rect id="Rectangle_2949" data-name="Rectangle 2949" width="87" height="87" rx="10" transform="translate(1288 368)" fill="#2fb2a2"/>
    </g>
    <g id="profile" transform="translate(1314.625 390.476)">
      <path id="Path_17171" data-name="Path 17171" d="M81.881,0A9.682,9.682,0,1,1,72.2,9.682,9.682,9.682,0,0,1,81.881,0Zm0,0" transform="translate(-65.006 1)" fill="#fff"/>
      <path id="Path_17172" data-name="Path 17172" d="M.3,282a17.428,17.428,0,0,1,4.85-11.715A16.255,16.255,0,0,1,16.875,265.4,16.255,16.255,0,0,1,28.6,270.288,17.431,17.431,0,0,1,33.45,282Zm0,0" transform="translate(0 -240.954)" fill="#fff"/>
    </g>
  </g>
</svg>
