<svg xmlns="http://www.w3.org/2000/svg" width="40" height="40" viewBox="0 0 40 40">
  <g id="whats" transform="translate(-80 -507)">
    <rect id="Rectangle_3647" data-name="Rectangle 3647" width="40" height="40" rx="5" transform="translate(80 507)" fill="#1bd741"/>
    <g id="Group_10633" data-name="Group 10633" transform="translate(89.342 516.33)">
      <path id="Path_16253" data-name="Path 16253" d="M68.494,89.661l1.493-5.3a10.64,10.64,0,1,1,3.975,3.895Zm5.748-3.344.326.2a8.837,8.837,0,1,0-2.845-2.781l.219.342-.86,3.053Z" transform="translate(-68.494 -68.321)" fill="#fff"/>
      <path id="Path_16254" data-name="Path 16254" d="M149.99,152.864l-.691-.038a.835.835,0,0,0-.594.2,3.146,3.146,0,0,0-1.035,1.586,4.806,4.806,0,0,0,1.115,3.767,11.208,11.208,0,0,0,6.041,4.392,2.944,2.944,0,0,0,2.493-.308,2.23,2.23,0,0,0,.97-1.416l.11-.515a.358.358,0,0,0-.2-.4l-2.334-1.076a.358.358,0,0,0-.433.106l-.916,1.188a.262.262,0,0,1-.295.088,7.176,7.176,0,0,1-3.883-3.323.265.265,0,0,1,.033-.3l.876-1.013a.358.358,0,0,0,.058-.375l-1.006-2.354A.358.358,0,0,0,149.99,152.864Z" transform="translate(-142.308 -147.174)" fill="#fff"/>
    </g>
  </g>
</svg>
